<svg width="600" height="101" viewBox="0 0 600 101" fill="none" xmlns="http://www.w3.org/2000/svg">
<g clip-path="url(#clip0_813_4422)">
<path d="M35.7344 25.2764C52.8703 25.2707 66.3884 23.1285 79.5615 36.3458C86.7103 43.4377 90.6937 53.1064 90.6123 63.1671C90.6282 73.2039 86.5678 82.8191 79.3584 89.8155C73.5252 95.5786 65.1673 100.026 56.8965 100.57C56.4147 100.841 53.2572 100.959 52.4658 100.94C36.8002 100.544 19.8157 103.493 7.56543 91.5987C2.8657 87.0662 0.203042 80.8281 0.18457 74.3048C0.0973334 68.7369 2.26676 63.3697 6.2002 59.421C11.9339 53.6612 17.9582 52.9921 25.5156 52.9854C25.3597 72.6162 25.381 76.3637 47.085 75.6866C48.3276 75.6476 50.0166 75.7342 51.3018 75.7823C55.4316 75.4981 59.6362 74.7058 62.5117 71.1934C68.5957 63.7615 64.6178 52.0801 54.7344 50.7755C48.9101 50.007 42.4678 50.7595 36.5645 50.5372C22.5101 50.6666 11.8629 48.5851 0.149414 57.9434L0.125 25.2638L35.7344 25.2764ZM387.006 42.6827C393.996 42.6827 403.447 42.0891 410.126 42.9532C420.284 44.2669 422.624 55.733 416.812 63.2764C422.591 70.2625 420.144 81.9256 410.904 83.4141C404.475 84.4494 393.997 83.8132 387.138 83.8126L336.843 83.8018L336.803 76.3731L395.791 76.3673C399.324 76.374 408.643 77.123 410.785 75.2598C411.865 74.3013 412.506 72.9429 412.558 71.5001C412.75 65.9731 406.052 66.8274 402.317 66.8067C396.456 66.7741 390.585 66.8228 384.724 66.8253L336.84 66.8409L336.815 59.4923C357.805 59.0994 378.994 59.7958 399.999 59.4376C404.057 59.3685 412.552 61.1156 412.595 54.8214C412.613 53.5322 412.103 52.2915 411.179 51.3888C409.128 49.3988 403.405 50.0297 400.509 50.0304L385.749 50.0333L336.83 50.0509L336.809 42.6768L387.006 42.6827ZM233.046 42.7188C238.843 42.4502 246.244 42.6561 252.138 42.6573L287.937 42.6358L287.929 50.0157L250.809 49.9864C245.627 49.9833 238.136 49.6009 233.088 50.2296C221.047 51.7291 219.322 70.3077 230.048 75.3897C231.44 76.0492 233.817 76.1615 235.377 76.3038C250.07 76.4527 264.632 76.4325 279.341 76.3204C284.265 76.2829 285.661 71.2129 283.106 68.2794C281.098 65.9729 272.576 66.7973 269.391 66.8321L244.091 66.8419L244.127 59.4552L268.439 59.4513C277.825 59.4308 289.148 57.3553 291.57 69.6846C292.669 75.2665 288.299 83.0765 282.317 83.5401C274.604 84.1377 266.414 83.7561 258.607 83.7725L242.36 83.8331C240.095 83.8419 237.794 83.7987 235.534 83.8243C225.14 83.9415 216.983 76.4868 215.531 66.1807C214.713 60.4811 216.217 54.6917 219.706 50.1065C223.078 45.7041 227.605 43.4304 233.046 42.7188ZM450.315 42.6915C459.64 42.1119 471.208 42.8288 480.887 42.5821C488.616 42.7755 496.543 42.202 504.238 42.8712C511.635 43.6943 517.905 49.553 519.019 56.9679C520.84 69.0973 517.877 81.3971 504.037 83.6495C502.53 83.8828 497.9 83.8056 496.21 83.8077L481.381 83.8175L461.959 83.8155C455.689 83.8122 448.295 84.5701 442.925 80.9298C438.946 78.278 436.208 74.1304 435.342 69.4337C435.018 67.7148 435.015 66.3029 434.921 64.6114C434.298 53.5308 438.531 44.8991 450.315 42.6915ZM317.396 83.7989L309.875 83.8116L309.859 49.9805L317.384 49.9552L317.396 83.7989ZM599.952 49.8243L569.924 49.838L569.933 53.4288L569.911 83.8048H562.524L562.521 49.8438C553.044 49.6236 542.786 49.8155 533.244 49.8106L533.247 42.5157H599.939L599.952 49.8243ZM164.875 40.8585C165.776 40.8076 166.893 40.7418 167.782 40.8096C170.018 40.9778 172.153 41.8103 173.911 43.2003C176.822 45.5112 184.875 55.3507 187.612 58.5763L209.28 83.7882L199.556 83.7999C192.068 75.7533 184.755 66.0199 177.19 57.8536C174.776 55.247 171.574 50.879 169.101 48.5958C167.214 47.8749 165.311 47.8319 163.825 49.3975C160.317 53.0937 157.056 57.0997 153.747 60.9884L134.292 83.7911L124.656 83.797C136.089 70.6437 147.541 56.099 159.458 43.2921C160.555 42.1128 163.324 41.2624 164.875 40.8585ZM163.782 73.5157C166.879 71.965 170.231 72.3631 171.847 75.7325C172.518 77.1257 172.606 78.7282 172.092 80.1866C171.627 81.4887 170.563 82.7248 169.306 83.3087C168.966 83.4649 168.617 83.5984 168.26 83.7081C166.169 83.822 163.435 83.7689 161.295 83.7862C161.279 82.4569 161.194 81.2591 161.185 80.1456C161.181 79.7002 161.19 79.2682 161.22 78.8468C161.235 78.6359 161.255 78.4277 161.282 78.2218C161.336 77.8102 161.416 77.4075 161.531 77.0108C161.647 76.6137 161.798 76.2224 161.994 75.8341C162.288 75.2519 162.683 74.6761 163.21 74.0968C163.386 73.9037 163.576 73.71 163.782 73.5157ZM501.367 49.9884C486.428 49.8361 471.421 49.9911 456.473 49.9503C454.7 49.9454 452.863 49.9093 451.097 50.0001C442.794 51.8861 442.375 57.5736 442.491 64.8751C442.708 78.3555 453.549 76.3916 463.457 76.3946L482.8 76.3897C486.462 76.387 500.766 76.6349 503.777 76.172C505.932 75.448 507.237 74.8031 508.974 73.2354C512.702 69.8621 512.419 60.8599 511.101 56.4942C509.859 52.3926 505.514 49.8414 501.367 49.9884ZM312.228 32.5733C319.703 27.8253 325.226 39.9338 316.835 42.6495C314.727 42.7838 312.011 42.7574 309.856 42.793C309.821 39.6633 309.31 36.9285 310.634 34.5206C310.898 34.0391 311.236 33.5703 311.666 33.1143C311.838 32.932 312.025 32.7517 312.228 32.5733ZM76.1396 9.97762C79.0183 -1.26536 93.6605 -3.52044 99.4561 6.43563C101.145 9.33379 101.599 12.7875 100.717 16.0225C98.8272 23.0886 93.2842 25.4797 86.6094 25.3741L85.96 25.3565C85.5587 25.3717 85.1499 25.3838 84.7354 25.3936C83.9063 25.4132 83.0541 25.4232 82.1934 25.4278C80.0414 25.4395 77.8361 25.4182 75.8057 25.4307C75.8101 25.0072 75.8097 24.4916 75.8057 23.9083C75.7796 20.1164 75.6266 13.4586 76.0352 10.5733C76.0666 10.3515 76.1013 10.1518 76.1396 9.97762Z" fill="white"/>
</g>
<defs>
<clipPath id="clip0_813_4422">
<rect width="600" height="101" fill="white"/>
</clipPath>
</defs>
</svg>
