<svg width="606" height="78" viewBox="0 0 606 78" fill="none" xmlns="http://www.w3.org/2000/svg">
<g clip-path="url(#clip0_810_3802)">
<path d="M540.446 0.436416C547.986 0.207607 556.292 0.392356 563.92 0.390518L605.406 0.436416C605.535 5.37399 605.524 10.315 605.369 15.2518C603.266 15.3462 600.96 15.332 598.849 15.2977C584.3 15.0619 569.544 15.6427 555.01 15.1942C554.962 20.6989 555.013 26.266 555.028 31.7763C569.574 31.8072 584.978 31.4943 599.45 31.9188C599.538 36.8237 599.538 41.7298 599.45 46.6347C589.689 46.9869 578.27 46.7178 568.387 46.7138L555.021 46.6874C554.933 52.1397 555.013 57.7796 555.028 63.247L605.41 63.3407C605.52 68.2234 605.517 73.1085 605.395 77.9911C583.98 78.0003 561.688 78.3142 540.343 77.9081C539.558 60.2554 540.722 41.613 540.258 23.8475C540.066 16.4809 539.96 7.67999 540.446 0.436416ZM223.895 0.52919C231.415 0.139008 240.544 0.3761 248.164 0.376846L288.808 0.456924C289.016 4.92975 288.971 10.7871 288.751 15.1962C272.677 15.8141 254.759 15.1147 238.381 15.3642C238.324 20.8337 238.342 26.3036 238.433 31.7724L266.215 31.789C271.488 31.7838 277.822 31.587 282.95 32.0321C283.132 36.7041 283.04 41.9442 282.846 46.5936C273.462 47.062 261.216 46.7256 251.617 46.7138L238.421 46.705C238.33 52.209 238.326 57.7143 238.408 63.2186L288.818 63.3475C288.975 68.216 288.955 73.0889 288.76 77.9559C273.664 78.3871 258.174 77.7369 243.037 78.0048C236.88 78.1138 229.912 78.18 223.802 77.8329C223.323 57.7423 224.017 37.4021 223.712 17.289C223.629 11.8278 223.574 5.95759 223.895 0.52919ZM25.2498 0.349502C30.476 0.345435 36.2056 0.0802193 41.3582 0.538955C74.9395 3.52733 88.4773 42.8646 65.5476 66.8036C52.7296 79.024 42.705 78.0539 26.1179 78.0204L0.605233 78.0018C0.449808 74.6879 0.437601 71.0432 0.507577 67.7108C0.975346 45.449 -0.194642 22.5993 0.646249 0.390518L25.2498 0.349502ZM492.743 0.388565C496.912 0.36903 501.487 0.243343 505.601 0.634658C505.826 12.1054 505.649 24.1688 505.653 35.6786C505.712 49.7408 505.682 63.8039 505.564 77.8661C501.034 78.1439 495.593 77.9969 490.993 77.9862C490.58 67.2827 490.912 54.4684 490.912 43.6054L490.872 25.9003C485.918 32.9239 479.597 39.7212 474.355 46.5849C471.681 50.0878 468.429 54.0437 465.453 57.2763C456.753 47.7282 448.339 35.9049 439.761 25.9813C439.93 28.0679 439.963 30.7382 439.919 32.8602C439.631 47.7412 440.464 63.067 439.79 77.9022C435.296 78.1325 429.959 77.9915 425.407 77.9823C425.234 74.7467 425.245 71.0734 425.307 67.8261C425.742 45.5111 424.603 22.6816 425.443 0.42958C429.661 0.382783 434.125 0.243658 438.313 0.562393C446.711 10.9237 457.552 23.5995 465.383 34.1425L492.743 0.388565ZM364.096 0.388565C375.644 25.8814 388.727 52.6831 400.908 77.9755C395.81 77.9895 389.626 78.1405 384.624 77.8417C381.436 71.5717 377.116 62.812 374.2 56.0614L373.636 54.7392C366.108 60.5792 355.374 62.9267 346.022 62.3456C345.09 62.2878 340.988 61.9144 340.461 62.2196C339.669 61.7182 333.945 60.1389 332.552 59.6513C330.018 58.7632 329.167 58.3362 326.769 57.0624C322.364 54.7307 318.489 51.671 315.009 48.1278C317.675 44.3406 321.417 40.0009 324.397 36.3593C336.593 49.832 352.152 50.7444 367.25 41.5438L358.737 23.6171C356.557 28.3667 353.838 34.59 351.33 39.1395C344.943 38.6274 342.637 37.9156 337.094 34.8329C340.718 27.3922 344.287 19.9273 347.808 12.4384C349.477 8.91791 352.104 3.78571 353.467 0.368057L364.096 0.388565ZM144.729 0.379775C151.481 0.365749 164.115 -0.375368 169.996 2.05458C175.721 4.45598 180.239 9.06205 182.531 14.8339C184.822 20.6417 184.736 27.1193 182.29 32.8642C179.212 39.9235 174.163 43.3275 167.333 45.996C173.838 56.1007 180.504 67.6269 186.738 77.997L170.783 78.0028C168.47 77.4618 164.999 70.6155 163.618 68.3378L150.619 46.7538C142.766 46.7092 134.912 46.7276 127.059 46.8075C127.006 57.1934 127.166 67.5309 126.97 77.9286C122.42 78.0988 117.155 77.9917 112.548 77.9921C111.698 61.0632 112.903 43.1185 112.435 26.0809C112.21 17.8743 112.28 8.57029 112.596 0.396377L144.729 0.379775ZM326.769 57.0634C329.167 58.3372 330.018 58.7642 332.552 59.6522C333.945 60.1398 339.669 61.7191 340.461 62.2206C338.807 65.7812 334.659 75.1429 332.64 77.9882L316.805 78.0106C319.266 72.0903 323.808 62.749 326.769 57.0634ZM44.9939 16.1835C39.6931 14.78 21.3775 15.1872 15.0476 15.3622L15.113 63.2069L29.7625 63.287C39.72 63.3246 47.4947 63.802 55.3796 56.1776C60.1208 50.6682 62.6964 45.1452 62.1941 37.6347C61.7856 31.1108 58.7342 25.0354 53.7459 20.8134C51.2074 18.6406 48.2182 17.0593 44.9939 16.1835ZM162.511 15.5585C151.235 15.0721 138.289 15.0666 127.048 15.3515C127.058 20.3295 126.898 26.921 127.208 31.7675L149.112 31.8642C154.496 31.8844 162.586 32.8663 166.915 29.5722C171.599 24.0369 169.25 15.8489 162.511 15.5585Z" fill="white"/>
</g>
<defs>
<clipPath id="clip0_810_3802">
<rect width="606" height="78" fill="white"/>
</clipPath>
</defs>
</svg>
