<svg width="600" height="168" viewBox="0 0 600 168" fill="none" xmlns="http://www.w3.org/2000/svg">
<g clip-path="url(#clip0_810_3821)">
<path d="M120.801 128.629C125.352 128.173 130.133 133.792 127.782 138.337C126.956 139.933 125.133 141.724 123.869 143.14C92.8086 174.919 41.3933 176.794 8.53878 146.71C3.30422 141.917 -5.7516 134.845 4.63839 128.898C4.77224 128.882 4.90642 128.868 5.04074 128.855C11.7749 128.266 14.2584 133.688 19.1491 137.48C24.5387 141.657 33.5701 147.702 39.9255 149.911C53.3677 154.583 72.0175 155.04 85.5427 150.846C91.1582 149.104 98.6372 144.984 103.418 141.818C105.38 140.525 107.274 139.13 109.091 137.638C111.542 135.604 117.911 128.919 120.801 128.629ZM230.336 56.6592C239.335 55.8805 248.131 56.8279 255.148 62.9014C273.494 78.7805 264.126 109.983 239.648 111.977C230.216 112.896 222.947 111.704 215.51 105.697C196.54 90.3746 205.745 58.5035 230.336 56.6592ZM485.196 56.6572C494.171 56.2095 505.992 56.5669 515.228 56.5186C515.165 61.0463 515.139 65.5746 515.155 70.1026C505.421 70.3327 495.198 69.209 485.54 70.876C472.074 72.8368 471.158 94.1819 483.659 96.9688C491.632 98.7459 504.867 97.9552 513.104 97.9375C514.097 97.9362 514.368 97.7654 515.092 98.249C515.458 101.662 515.278 108.538 515.275 112.219C509.672 112.112 504.072 112.055 498.472 112.046C487.232 112.066 480.274 113.414 470.953 105.838C458.701 95.8786 456.895 78.1184 467.363 66.168C472.361 60.4608 477.52 57.2712 485.196 56.6572ZM149.339 56.6543C157.28 56.1825 169.726 56.5968 178.031 56.6328C177.849 61.352 177.976 65.3869 178.163 70.0821C168.442 70.2343 159.146 69.4815 149.411 70.6758C134.242 72.5369 134.179 95.4826 148.188 97.3242C157.326 98.5257 168.533 97.9498 177.966 97.9053C178.196 102.376 177.791 106.924 178.087 111.961L160.951 112.091C149.725 112.184 142.354 113.131 133.083 105.215C118.802 93.0203 121.208 69.457 137.227 60.0362C141.221 57.6877 144.684 56.9527 149.339 56.6543ZM56.8669 56.6592C68.8832 55.8495 84.4483 57.0061 97.0691 56.4658C93.1332 60.8282 90.2478 67.362 86.0769 70.3272C78.6564 70.5649 61.6251 69.558 55.4919 71.2481C53.0608 71.9046 50.8377 73.1749 49.0359 74.9375C46.583 77.3728 45.2067 80.692 45.2136 84.1524C45.2007 87.9786 47.2046 91.8266 49.7985 94.5225C52.9592 97.8067 59.697 97.7965 63.9109 97.753C70.6914 97.6832 77.4075 97.6297 84.155 97.5713C85.2496 97.5584 86.0317 97.5744 86.8298 98.4336C90.592 102.482 93.6516 107.487 96.7439 112.089C82.907 111.283 68.3202 112.895 54.4597 111.665C50.0663 111.275 43.8836 107.699 40.6218 104.817C35.2351 100.106 31.9528 93.431 31.5056 86.2803C30.5599 70.7043 41.0624 57.6202 56.8669 56.6592ZM400.226 56.5733C408.911 55.9591 415.405 58.3806 418.194 67.0117C422.987 81.8428 429.391 96.8961 433.617 111.789C430.031 112.061 420.955 112.278 417.602 111.78C416.471 106.75 414.246 102.117 412.699 97.249C410.2 89.3948 407.096 81.7882 404.537 73.9668C404.335 73.2689 404.155 72.854 403.872 72.1836L403.497 72.3682C399.06 82.1545 392.867 101.193 389.445 111.782C384.192 112.315 378.558 111.549 373.686 112.039C377.294 102.902 379.806 92.1897 383.357 82.8721C385.856 76.3162 387.498 69.1694 391.132 63.0196C393.322 59.3131 396.199 57.5633 400.226 56.5733ZM333.687 56.167C339.142 56.3998 344.058 56.5151 349.516 56.3174C348.187 60.5968 347.001 64.2774 345.407 68.4571C342.955 74.8881 340.677 81.384 338.575 87.9365C335.799 96.3456 333.101 108.62 323.708 111.29C306.004 116.322 302.991 94.2838 298.633 82.9688C295.021 73.5988 292.416 65.3047 289.408 56.2217C294.687 56.1595 299.966 56.1976 305.244 56.335C307.696 64.5345 311.251 72.9134 313.958 81.0977C315.666 86.2633 317.815 91.9795 320.115 96.8682C321.07 90.1693 324.502 83.3103 326.556 76.9424C328.857 69.8168 331.191 63.1907 333.687 56.167ZM549.256 59.8936C555.564 53.5069 566.225 54.789 574.557 54.8194C582.962 54.8683 591.363 54.8746 599.767 54.8389C600.586 55.7471 600.086 67.0671 600.045 69.1299L574.627 69.1436C569.679 69.1474 563.928 69.0304 559.059 69.4668C558.971 71.3631 559.009 73.2362 559.031 75.1328C566.373 75.6153 573.855 75.3561 581.197 75.418C587.077 75.2886 591.072 77.0993 595.166 81.1729C602.439 88.4054 601.639 99.7952 594.148 106.628C590.282 110.529 584.329 110.97 578.94 110.92C567.753 110.815 556.021 111.414 544.831 110.952L544.566 110.92C543.851 109.946 544.21 98.646 544.229 96.6094C557.209 96.6997 570.211 96.3971 583.188 96.459C585.725 96.5964 586.821 91.3468 584.657 90.8613C576.416 89.0149 566.496 91.515 558.305 89.6133C554.89 88.8298 551.764 87.1003 549.284 84.6221C542.269 77.6823 542.317 66.918 549.256 59.8936ZM245.729 73.5303C242.632 71.1181 238.287 69.6922 234.35 70.2256C229.61 70.7552 225.535 71.7232 222.328 75.6748C220.085 78.4604 219.019 82.0151 219.358 85.5781C220.38 95.407 228.277 98.0452 236.792 97.8535C241.592 97.3764 244.363 96.877 247.724 92.9522C252.665 87.1831 251.695 78.1762 245.729 73.5303ZM65.9978 76.8799C71.7703 76.6671 83.7188 76.3485 88.7214 78.0313C91.5522 81.0006 93.1393 84.8381 90.2263 88.6153C88.4458 90.9236 86.1056 90.9493 83.3962 91.2041C78.2625 91.2815 67.9554 91.7695 63.2956 91.0283C53.7927 89.5168 54.1737 77.6141 65.9978 76.8799ZM58.5027 0.450217C62.7899 0.167901 67.0921 0.204615 71.3737 0.558615C92.5338 2.45019 111.645 11.2397 125.995 27.4258C127.454 29.0714 128.756 31.1681 128.511 33.4522C128.326 35.3588 127.366 37.1054 125.857 38.2822C123.859 39.8393 121.155 40.132 118.872 39.0381C116.083 37.6985 111.836 32.879 109.241 30.6738C97.7181 20.882 84.9294 16.0948 70.0339 14.2481C51.4081 13.1046 34.2703 18.3643 19.7546 30.3428C15.4821 33.735 8.69099 43.1945 2.4382 38.2881C-5.71154 31.8923 7.29854 22.1946 11.8855 18.4473C25.5726 7.26583 40.9146 1.78475 58.5027 0.450217Z" fill="white"/>
</g>
<defs>
<clipPath id="clip0_810_3821">
<rect width="600" height="168" fill="white"/>
</clipPath>
</defs>
</svg>
