<svg width="600" height="120" viewBox="0 0 600 120" fill="none" xmlns="http://www.w3.org/2000/svg">
<g clip-path="url(#clip0_810_3772)">
<path d="M63.8531 -0.522925C88.184 1.58488 118.071 -10.2408 118.426 25.8638L118.486 76.9556C118.49 85.4022 118.889 95.1847 117.891 103.584C116.952 107.677 114.488 111.145 111.605 114.084C104.222 121.608 90.7359 119.94 80.9986 119.87C75.3428 119.921 69.6866 119.77 64.0406 119.428C64.8487 112.697 64.4895 97.9034 64.4918 90.563L64.4742 37.982C51.3497 37.6196 30.395 38.7592 18.0758 37.4439C20.7855 30.4829 49.1372 1.83706 55.9449 -0.409644C58.073 -0.51183 61.7503 -0.70526 63.8531 -0.522925ZM0.331642 50.0064C17.5927 50.2173 34.8706 49.8382 52.148 50.1382L52.2477 97.2144C52.2594 101.513 52.6489 115.801 52.1422 119.513C44.6406 119.799 37.1343 119.94 29.6275 119.94C17.4266 120.001 11.4021 120.497 2.13145 111.319C-0.957425 100.884 0.0583507 62.7566 0.331642 50.0064ZM35.0885 84.6753C32.3342 78.7272 30.0042 75.2161 22.7066 75.8863C19.6345 77.569 16.4523 79.993 15.4791 83.5601C14.9031 85.6412 15.2616 87.8725 16.4615 89.6724C19.3222 94.0359 22.9018 94.3792 27.5201 94.6089C31.8301 92.5183 33.4554 89.0205 35.0885 84.6753ZM100.752 83.4468C99.8112 78.3422 94.8879 74.9853 89.7945 75.979C84.7716 76.9541 81.4721 81.7962 82.399 86.8257C83.3262 91.86 88.1336 95.2069 93.1754 94.3306C98.287 93.44 101.692 88.5513 100.752 83.4468ZM377.941 34.7583C384.189 34.8975 389.805 34.437 393.55 40.4458C400.802 52.0877 391.783 60.0335 382.751 66.1929C386.196 69.7042 395.087 80.3999 386.824 83.6343C380.852 83.6531 377.224 75.4693 374.196 71.0396C372.115 67.9974 366.757 59.6726 369.344 56.2788C371.632 55.154 373.863 55.1438 376.426 54.8814C379.197 54.7689 382.051 54.4171 384.817 54.1265C385.192 52.7158 385.479 51.2817 385.675 49.8335C385.9 48.1413 386.027 46.8093 384.991 45.4087C381.217 44.4361 366.982 44.8618 362.196 44.9077C361.324 50.6907 360.555 56.4847 359.889 62.2925C359.505 65.8925 359.251 69.5441 358.872 73.1441C358.304 78.4831 359.017 82.5753 353.369 85.0738C345.625 84.6185 351.006 54.4697 351.559 48.6333C352.773 35.8482 352.746 35.0211 364.863 34.8579C369.218 34.8111 373.666 34.7279 377.941 34.7583ZM220.636 34.8501C225.786 34.8098 239.564 33.4611 241.309 39.1089C240.637 42.0098 239.208 42.6764 236.69 44.3736C228.191 45.0575 218.686 43.4133 210.601 46.4478C202.941 49.5087 197.731 58.2468 201.204 66.1734C207.447 80.4229 224.154 71.8635 234.408 75.8384L238.051 78.9839C236.138 81.2105 234.909 82.2984 232.726 84.2437C231.533 84.4077 230.334 84.5341 229.132 84.6138C218.699 85.3591 205.818 86.0151 197.663 78.5855C182.529 64.7948 193.702 39.7236 211.928 35.7154C214.975 35.0455 217.537 34.98 220.636 34.8501ZM267.372 35.2964C269.399 35.1009 271.26 34.6529 273.085 35.3804C274.824 38.2372 272.739 58.7613 271.718 62.7652C271.019 65.5167 269.916 68.1513 268.444 70.5747C263.276 79.1388 256.007 82.6974 246.638 84.9849C245.773 84.9052 243.517 84.4548 242.931 83.8267C235.512 76.9829 250.937 73.3497 256.224 70.3404C267.188 64.0919 260.708 39.8023 267.372 35.2964ZM473.725 34.8413C487.356 34.6749 495.349 31.9499 500.172 47.6226C499.554 50.8004 497.473 55.4317 497.196 57.6304C496.24 65.3085 498.884 72.9874 492.888 79.6812C489.621 83.328 485.411 84.5419 480.639 84.7622C472.727 84.7857 460.61 85.1655 453.068 84.439C452.229 74.9792 455.346 44.368 457.98 35.2027C463.15 35.0058 468.536 34.9594 473.725 34.8413ZM164.514 34.7115C166.774 34.7621 167.239 34.5694 168.848 35.7183C171.132 40.9156 167.186 66.9238 166.324 74.0113C170.709 74.1659 187.277 73.899 190.254 76.149C191.951 79.8894 189.355 82.983 186.042 84.4829C179.646 85.0313 163.087 85.0176 156.871 84.3755C155.63 74.9865 159.072 47.2316 161.756 36.8833C162.072 35.6641 163.392 35.153 164.514 34.7115ZM557.092 35.1753C571.281 34.8463 585.475 34.8142 599.664 35.0777C600.015 39.1297 599.997 40.1898 599.551 44.1665C594.273 45.2132 588.02 44.951 582.583 44.9234C581.8 52.3978 580.975 59.8647 580.117 67.3316C579.536 72.9986 579.16 78.7363 577.117 84.0659C574.67 84.5065 572.528 84.6339 570.067 84.812C568.773 76.5527 571.642 54.5071 572.608 44.9966C569.027 45.0613 565.394 45.3389 561.827 45.2818C554.706 45.1664 556.281 39.7484 557.092 35.1753ZM529.318 34.8023C534.174 34.6874 538.946 36.0945 542.959 38.8267C560.762 51.1815 550.777 77.783 532.651 83.4409C530.551 84.0971 528.943 84.4019 526.773 84.73C515.298 85.0111 505.107 77.8531 503.682 66.0689C502.82 58.6299 504.971 51.153 509.659 45.3111C514.974 38.5984 521.054 35.7956 529.318 34.8023ZM425.401 34.8091C430.295 34.6104 435.128 35.9338 439.234 38.5982C456.095 49.7235 448.056 76.3441 431.148 82.6206C427.998 83.7877 426.32 84.1714 423.062 84.687C417.662 84.8885 412.351 83.2295 408.025 79.9859C394.099 69.5047 399.381 47.4031 412.67 39.0493C417.198 36.1994 420.287 35.4602 425.401 34.8091ZM287.029 34.6441C288.503 34.675 288.423 34.6568 289.801 35.1734C296.148 41.6878 279.05 76.8741 305.819 74.0288C325.661 71.9239 317.716 43.3666 323.861 36.4273C324.798 35.353 326.172 34.7601 327.597 34.814C328.858 34.8501 329.852 35.0005 330.752 35.8872C332.134 39.8856 331 45.8335 330.541 50.2163C329.308 63.8476 328 73.2747 315.166 80.8872C303.827 87.6137 288.559 85.0305 282.501 72.6743C281.431 70.4901 280.764 68.1278 280.534 65.7046C279.988 60.5063 280.642 54.3842 281.089 49.1109C281.597 43.1354 280.701 37.2846 287.029 34.6441ZM486.705 72.6226C491.12 62.9011 481.357 64.2782 475.146 64.2642C472.526 64.2595 469.853 64.3351 467.233 64.3726C464.857 64.4709 464.931 64.0914 463.291 65.2163C462.1 67.7756 462.579 71.2678 462.415 74.3941C468.227 74.4831 477.696 74.8295 483.311 74.1031C484.994 73.7797 485.482 73.8362 486.705 72.6226ZM424.582 44.5347C405.143 49.3577 403.849 73.7931 424.009 74.3794C443.055 71.2013 444.269 44.8306 424.582 44.5347ZM528.933 44.5845C524.274 45.321 518.902 47.4783 516.432 51.5327C508.75 64.1278 514.609 74.402 528.732 74.0835C537.226 72.307 544.21 63.8415 542.19 55.104C541.388 51.5277 539.185 48.4249 536.068 46.4937C533.842 45.1382 531.516 44.6164 528.933 44.5845ZM210.552 55.4497C217.145 54.9857 223.254 54.9241 229.832 55.6929C229.883 59.7662 230.9 62.7333 226.543 64.0083C221.773 64.3411 216.227 64.7536 211.526 64.149C206.984 63.5627 206.196 57.1984 210.552 55.4497ZM489.972 49.0572C490.605 43.2568 476.337 44.6823 472.868 44.6988L466.54 44.7837C465.565 48.1852 464.875 50.7212 464.21 54.1851C469.947 55.0991 476.627 54.8603 482.501 54.7525C486.64 54.5275 489.452 53.7914 489.972 49.0572ZM16.398 -0.364722C22.8734 -0.732691 29.3725 -0.753159 35.7896 0.248559C32.8342 3.6334 28.5092 7.50278 25.2125 10.7212C20.0816 15.7935 14.9764 20.8918 9.89707 26.0161C6.52308 29.3348 3.3791 32.7217 0.628517 36.5757C-0.733662 21.2032 -2.77576 3.48338 16.398 -0.364722Z" fill="white"/>
</g>
<defs>
<clipPath id="clip0_810_3772">
<rect width="600" height="120" fill="white"/>
</clipPath>
</defs>
</svg>
