<svg width="424" height="104" viewBox="0 0 424 104" fill="none" xmlns="http://www.w3.org/2000/svg">
<g clip-path="url(#clip0_813_3839)">
<path d="M155.771 88.6445C156.454 88.7693 160.624 91.2169 161.566 91.6943C163.853 92.8528 165.59 93.8034 168.123 94.6074C180.641 98.5805 194.819 98.4435 207.118 93.7744C210.388 92.5335 213.613 90.3421 216.776 88.7158C217.729 90.3816 219.316 92.4294 220.48 94.0186C219.686 94.6274 218.568 95.2867 217.702 95.8291C206.519 102.708 196.476 104.131 183.641 103.972C174.342 103.838 165.216 101.449 157.05 97.0117C155.664 96.2712 153.284 94.9861 152.221 93.8984C153.351 92.0518 154.419 90.3427 155.771 88.6445ZM319.819 3.27344C329.437 0.640855 344.114 0.961046 352.926 5.78027C351.691 9.14263 350.981 12.5527 349.747 15.9082C347.1 15.0043 344.22 13.9099 341.516 13.3516C322.807 9.52652 307.181 18.2713 305.821 38.2383C304.769 53.6883 308.386 69.1614 325.487 72.9424C325.488 72.9423 325.49 72.9416 325.491 72.9414C330.527 74.2648 335.2 74.1787 340.236 72.9287L340.239 72.9297C344.368 72.2865 346.857 70.8138 350.685 70.0098C351.268 73.3001 352.55 77.24 353.522 80.4688C351.597 81.1928 348.097 82.5675 346.191 83.0879C335.768 85.9354 321.438 85.8609 311.896 80.4727C303.606 75.7634 298.171 68.7698 295.63 59.6895C289.569 38.0419 295.323 9.97863 319.819 3.27344ZM62.3681 2.60254L62.3798 13.6641L62.3886 49.793C62.3414 70.8072 53.0402 84.6623 30.7939 84.7666C13.2775 84.8485 1.34742 74.6234 0.0458139 56.958C-0.466026 50.0112 -0.282234 42.7887 -0.285241 35.8789L-0.279381 2.61426C3.67785 2.55168 7.75078 2.60699 11.7167 2.61426L11.6825 35.4062C11.6848 43.4505 11.2184 51.8808 12.8202 59.7793C14.612 68.6136 21.6737 73.721 30.6249 73.5977C52.5945 73.2943 50.0705 52.864 50.0673 37.1904L50.0878 2.5791L62.3681 2.60254ZM253.364 2.02051C257.108 1.83263 261.668 1.94313 265.494 1.94434L286.691 1.95898C286.82 5.67717 286.687 10.1034 286.672 13.875C279.925 14.0141 273.007 13.6856 266.322 13.873C260.188 14.0451 252.035 12.7285 247.376 17.2412C244.5 20.0264 244.49 23.6223 244.471 27.2998L244.469 51.248C244.471 54.9878 244.214 60.7745 244.797 64.3623C246.171 72.834 257.411 71.8171 263.901 71.8184L277.789 71.8076L286.719 71.8008C286.753 75.7212 286.708 79.6819 286.693 83.6055C280.698 83.792 274.244 83.697 268.198 83.6357C259.891 83.5517 249.883 84.7784 242.541 80.417C229.751 72.819 232.01 58.1078 231.995 45.4541L231.96 32.5498C231.951 28.552 231.805 24.7302 232.515 20.7607C234.488 9.73575 242.382 3.31067 253.364 2.02051ZM144.157 2.97656C151.208 3.12769 158.28 2.87722 165.334 3.0332C172.399 3.18942 182.489 1.87303 187.939 7.11914C192.725 11.7254 192.287 18.1422 192.294 24.2109L192.272 36.9824L192.305 83.4658C190.749 83.7133 182.252 83.5278 180.23 83.5107L180.228 40.1904L180.248 27.9121C180.252 24.5164 180.778 18.45 178.257 16.1406C176.127 14.19 167.708 14.8121 164.876 14.8145C157.954 14.8462 151.031 14.841 144.109 14.7988C144.098 10.8582 144.114 6.91699 144.157 2.97656ZM97.8017 2.59473C109.082 2.58944 123.723 1.56003 130.369 12.6064C136.464 22.7366 134.372 34.2901 124.26 40.5029C125.091 41.2394 127.019 42.2622 128.012 42.877C138.288 49.2417 138.647 61.5198 134.231 71.5654C126.948 84.7254 110.09 83.5553 97.3026 83.5557L77.8769 83.5078L77.8778 2.61426L97.8017 2.59473ZM376.567 2.60156C376.434 13.7706 376.437 24.9414 376.577 36.1104C388.205 36.191 400.652 36.2764 412.242 36.0527C412.287 24.9014 412.277 13.7497 412.209 2.59863H424.432C424.135 9.50285 424.328 17.7267 424.33 24.7402L424.327 63.7939L424.336 77.6631C424.342 78.7687 424.514 82.3785 424.359 83.2432C423.775 83.6812 423.535 83.528 422.663 83.54C419.175 83.5603 415.69 83.5494 412.204 83.5078L412.247 47.7236C401.058 47.4368 387.824 47.6361 376.586 47.7324C376.376 59.2453 376.317 72.0076 376.586 83.5029C372.622 83.6256 368.352 83.5419 364.367 83.5322L364.369 2.5918L376.567 2.60156ZM107.51 13.4912C101.592 13.4655 95.6395 13.4759 89.7167 13.5225L89.7206 72.6221L101.271 72.6621C108.223 72.6818 116.329 73.2778 121.812 68.1377C125.61 64.5773 126.16 58.1237 123.756 53.6348C118.885 46.3703 109.062 47.2457 101.331 47.3594C101.304 44.7459 101.118 38.2827 101.431 36.0137C106.985 36.2139 113.856 36.8436 118.265 32.7549C122.349 29.0075 122.946 21.3991 119.065 17.3184C116.276 14.3857 111.422 13.5082 107.51 13.4912ZM252.356 35.9775C255.358 35.892 279.71 35.7025 280.442 36.1572L280.613 36.8936C280.497 38.3748 280.395 47.5511 280.626 48.7188C280.573 48.8755 280.393 49.4958 280.31 49.5C273.456 49.8498 261.502 49.6356 255.101 49.6504C254.73 49.6863 252.676 49.8179 252.46 49.5469C250.294 46.8325 251.503 41.7024 251.251 38.332C251.153 37.0019 251.814 37.1795 252.333 36.0332L252.356 35.9775ZM158.722 33.7412C160.945 33.0892 163.347 33.6802 165.012 35.2881C166.676 36.8959 167.346 39.2726 166.764 41.5098C166.181 43.7467 164.437 45.4986 162.199 46.0957C158.797 47.0033 155.296 45.0136 154.344 41.6318C153.392 38.2501 155.343 34.7327 158.722 33.7412ZM222.166 -0.402344C223.43 1.13583 226.539 8.2456 227.208 10.2314C221.317 15.7236 210.65 16.7352 202.937 16.6279C201.248 16.6045 198.905 16.7504 197.273 16.4971C196.763 10.2649 195.789 9.03094 191.833 4.32227C193.475 4.55144 197.465 4.47819 199.262 4.45508C208.117 4.34115 214.534 4.56875 222.166 -0.402344Z" fill="white"/>
</g>
<defs>
<clipPath id="clip0_813_3839">
<rect width="424" height="104" fill="white"/>
</clipPath>
</defs>
</svg>
