<svg width="516" height="116" viewBox="0 0 516 116" fill="none" xmlns="http://www.w3.org/2000/svg">
<g clip-path="url(#clip0_813_3877)">
<path d="M25.4834 9.92004C38.3377 1.35661 54.0605 -1.72387 69.1826 1.35852C83.6112 4.24841 97.1585 13.6718 105.282 25.9376C113.721 38.6883 116.759 54.282 113.727 69.2814C110.666 84.2745 101.792 97.4344 89.0576 105.864C76.3802 114.298 60.8743 117.315 45.9727 114.249C31.0081 111.181 17.8726 102.272 9.45996 89.4845C5.43956 83.4159 2.63881 76.618 1.21484 69.4728C0.908111 67.9128 0.289517 63.1555 0 62.1368V53.3907C0.798975 49.346 0.97124 46.5103 2.11816 42.3243C5.78818 29.0657 14.0791 17.5679 25.4834 9.92004ZM109.428 55.4611C108.139 26.685 83.8603 4.39153 55.1699 5.64074C26.4195 6.89273 4.13707 31.3084 5.42773 60.1447C6.71857 88.9814 31.093 111.296 59.8398 109.958C88.5262 108.623 110.716 84.2371 109.428 55.4611ZM415.239 17.8019C429.691 17.7314 437.108 22.621 445.35 34.2413C441.084 37.4155 434.584 41.4563 429.98 44.5441C428.449 42.1815 426.98 40.0317 424.665 38.4454C417.668 33.6548 408.303 36.1768 403.705 43.0509C399.757 48.9521 399.189 56.0067 400.28 62.84C401.112 68.027 403.747 73.2163 408.065 76.2228C411.462 78.5746 415.644 79.4935 419.711 78.7814C424.795 77.8491 427.512 74.4471 430.273 70.4513C432.312 71.5207 436.741 74.6747 438.837 76.0988C440.704 77.1951 443.914 79.5357 445.834 80.8312C438.855 91.3861 430.966 97.0347 418.111 97.3751C408.489 97.6299 400.163 95.3636 392.997 88.6505C377.217 73.87 376.433 43.7696 390.963 27.9132C397.461 20.8375 405.849 18.0805 415.239 17.8019ZM273.23 17.672C321.704 14.7042 321.731 94.6492 279.011 97.131C278.849 97.1588 278.688 97.1828 278.526 97.2032C277.347 97.3528 275.866 97.3191 274.656 97.3087C240.8 97.0191 231.595 53.0407 249.156 29.8087C254.841 22.2878 262.548 18.9164 271.739 17.7823C272.235 17.7396 272.732 17.7029 273.23 17.672ZM345.526 17.4718C357.174 17.5916 364.962 21.2194 372.972 29.3829C370.298 32.5672 364.189 38.2432 361.069 41.3077C360.744 40.9157 360.397 40.5436 360.026 40.1945C355.212 35.7 344.508 31.24 338.257 36.8302C336.589 38.3204 336.533 40.6732 336.619 42.8146C341.321 51.1057 360.681 47.7502 369.711 57.878C373.525 62.1587 374.73 68.0178 374.402 73.6222C374.042 79.8195 371.424 85.5037 366.773 89.6349C359.522 96.0771 349.925 97.5792 340.58 97.0187C329.333 96.8582 320.535 90.9763 313.369 82.8331C317.476 78.9035 321.532 74.9178 325.533 70.878C326.806 72.2973 327.945 73.2198 329.398 74.8185C335.027 81.0122 354.601 84.9834 354.889 72.5255C354.997 67.7111 346.859 66.0458 343.044 65.2677C336.544 63.9414 329.373 62.2595 324.173 57.7032C315.07 50.1074 314.811 35.2821 322.278 26.4952C327.491 20.3615 335.589 18.0887 343.302 17.5431C344.042 17.4929 344.783 17.4688 345.526 17.4718ZM473.221 19.4894L473.188 47.4894L496.056 47.4835C495.716 38.3548 496.13 28.7605 495.876 19.4982L516 19.4923V95.5958C514.38 95.7755 511.127 95.6633 509.355 95.6593C504.886 95.6052 500.417 95.6393 495.947 95.7609C496.02 85.7787 495.826 75.6489 495.997 65.6935L473.16 65.6759C473.51 74.8358 473.205 86.3436 473.208 95.6769C466.64 95.6781 459.703 95.5054 453.178 95.7755C452.646 70.676 453.475 44.7382 453.092 19.4864L473.221 19.4894ZM193.646 19.4933C206.766 19.4885 225.097 17.3414 230.206 33.0109C233.443 42.9399 230.098 51.4479 220.872 56.048C221.832 56.3677 222.779 56.7305 223.706 57.1368C228.103 59.1026 231.548 62.7309 233.291 67.2316C235.306 72.5221 234.828 77.9271 232.559 83.0294C231.555 84.9746 230.28 86.7664 228.771 88.3497C220.361 97.0635 209.584 95.6893 198.629 95.6779C189.707 95.6273 180.785 95.6506 171.864 95.7472C172.273 70.8075 171.994 44.5124 171.9 19.503L193.646 19.4933ZM77.2217 21.8878C78.8185 21.8136 79.746 21.8595 81.3418 21.9884C86.2566 25.2926 90.444 29.5727 93.6455 34.5636C99.8186 44.209 101.905 55.9248 99.4434 67.1173C97.0387 78.0751 90.4464 87.6508 81.082 93.7882L77.2129 93.7687C77.1023 87.305 77.1744 80.6153 77.1641 74.1398C64.9197 73.7746 50.1131 74.0196 37.8008 74.13L37.7656 93.7784C36.4621 93.8022 35.0477 93.7677 33.7344 93.7609C25.6548 88.6809 19.2639 79.8515 16.4111 70.7706C13.002 59.8779 14.0268 48.0748 19.2627 37.9376C21.6916 33.2592 29.1897 23.3925 34.0566 21.8527L37.7676 21.8663L37.7861 41.4718C50.2803 41.8514 64.5497 41.5201 77.1562 41.5284C77.2875 35.0426 77.1285 28.4184 77.2217 21.8878ZM32.1445 29.7814C24.6465 36.474 20.1613 45.9206 19.7061 55.9777C19.2901 64.4565 21.5821 72.1035 26.2373 79.13C28.3111 82.0484 29.6686 83.5622 32.2803 86.0128L32.292 44.3126C32.2923 42.3809 32.4957 30.9049 32.1445 29.7814ZM82.6299 85.8859C85.059 83.3826 86.7245 81.6828 88.7129 78.7697C94.4007 69.9398 96.4412 60.1083 94.2285 49.756C92.5938 42.0087 88.5336 34.9879 82.6396 29.7189L82.6299 85.8859ZM190.901 64.7501C191.019 69.0476 191.116 75.3893 190.933 79.6515C196.924 79.6659 207.181 80.6313 211.789 77.6456C212.838 76.6236 213.703 75.5874 213.946 74.1173C215.236 66.3123 209.552 64.9925 203.47 64.8165C199.717 64.7081 194.371 65.1964 190.901 64.7501ZM287.662 72.339C295.427 60.5353 291.953 33.6594 273.273 36.1866C269.01 37.0343 265.533 38.8113 263.218 42.6124C255.591 55.1174 258.71 81.0404 277.879 78.8243C282.069 77.9562 285.266 75.983 287.662 72.339ZM37.7861 68.4972L77.1641 68.5372L77.1699 46.9933L37.792 46.9747L37.7861 68.4972ZM203.616 35.339C199.402 35.385 194.894 35.5695 190.707 35.4318C190.697 39.1713 190.869 45.891 190.631 49.4132C195.358 49.4411 205.777 50.468 209.283 47.5861C214.207 42.0467 210.877 35.2596 203.616 35.339Z" fill="white"/>
</g>
<defs>
<clipPath id="clip0_813_3877">
<rect width="516" height="116" fill="white"/>
</clipPath>
</defs>
</svg>
