<svg width="570" height="114" viewBox="0 0 570 114" fill="none" xmlns="http://www.w3.org/2000/svg">
<g clip-path="url(#clip0_813_4350)">
<path d="M110.616 -0.181824C120.991 -0.0939866 123.835 7.84275 124.593 16.8348C124.634 17.321 124.67 17.8103 124.7 18.3016C124.878 21.2485 124.867 24.2679 124.854 27.1277C124.848 28.5578 124.841 29.948 124.856 31.2693C124.871 32.5903 124.909 33.8425 124.993 34.9969C125.004 35.1519 125.014 35.3215 125.023 35.5037C125.041 35.8684 125.055 36.2837 125.065 36.7352C125.07 36.9608 125.073 37.1955 125.076 37.4373C125.087 38.4044 125.081 39.4863 125.058 40.5662C125.018 42.4564 124.927 44.3405 124.785 45.5916C124.764 45.7702 124.743 45.9358 124.72 46.0867L124.694 81.7049C124.631 88.8485 124.623 95.7874 123.893 102.906C122.685 114.682 116.162 113.82 106.865 114.427C101.591 111.868 94.6181 106.534 89.6304 102.998L62.4527 83.7205C55.4288 86.964 52.5982 90.9348 46.2828 94.741C35.4807 100.838 22.7002 116.112 9.5816 114.524C3.5674 113.796 0.459392 107.238 0.271053 101.77C-0.23836 86.9744 -0.0158329 72.1245 -0.0189862 57.3299V29.8377C-0.010874 23.0362 -0.271209 15.0769 0.942928 8.46857C2.08394 2.97975 10.374 -1.76013 15.9185 0.484192C27.586 5.20738 38.8647 15.5852 49.3248 22.7791C52.1802 24.7429 57.1612 29.3704 60.3462 29.8436C65.8396 30.6585 72.3899 23.8977 76.6402 21.1873C82.5284 17.1567 88.15 12.9075 94.0377 9.00763L95.2193 8.23224C95.665 7.7331 96.2779 7.15794 97.0064 6.54767C97.1967 6.3883 97.395 6.22674 97.6002 6.06329C99.3645 4.65746 101.645 3.12809 103.861 1.93536C105.201 1.21377 106.517 0.614666 107.681 0.242004C107.99 0.143152 108.288 0.0601411 108.573 -0.00506604C108.715 -0.0375797 108.854 -0.0656114 108.989 -0.0890504C109.124 -0.11254 109.256 -0.130815 109.384 -0.144714C109.513 -0.15864 109.637 -0.168235 109.757 -0.172058C110.049 -0.181289 110.335 -0.184209 110.616 -0.181824ZM110.877 48.5359C98.4089 56.4799 85.8251 67.3844 73.6314 74.4451C78.2637 79.9022 83.7649 83.398 89.6343 87.3807C97.6176 93.3168 103.221 97.4585 111.81 102.524C111.899 90.9011 111.928 79.2767 111.9 67.6531C111.893 63.8249 112.045 51.9637 111.237 48.8992L110.877 48.5359ZM111.401 12.7303C106.682 15.2116 102.175 18.8082 97.647 21.9305C97.3236 22.1535 97 22.374 96.6763 22.5916C96.3527 22.8091 96.0287 23.0232 95.7046 23.2342C74.9213 38.6716 53.2217 53.1945 32.5972 68.9256C25.4463 74.3795 18.2326 76.9132 12.3482 84.4647C12.3175 90.3801 12.3751 96.5286 12.2388 102.423C21.6443 97.4025 37.7255 84.8909 47.0621 78.2361C67.2807 64.0315 87.3892 49.6684 107.386 35.1492L111.752 31.9686C112.065 25.5492 111.801 19.1369 111.401 12.7303ZM443.814 50.2322C459.882 49.2727 482.904 46.2046 489.546 64.5399C491.274 69.2945 491.026 74.5488 488.86 79.117C486.103 84.9841 480.422 89.3306 474.42 91.4256L473.537 91.6307C468.452 92.7709 462.163 93.534 456.068 93.5486C451.049 93.5609 446.161 93.0657 442.185 91.8553C415.703 85.1117 420.008 51.6542 443.814 50.2322ZM508.651 49.5692C509.77 49.4737 512.247 49.4245 513.159 49.8895C520.766 53.7822 528.735 60.6774 535.96 65.5692C546.369 62.02 570.654 34.0332 570.461 62.3338C570.406 69.8262 570.907 80.4497 569.874 87.5809C567.712 90.258 566.48 91.0466 563.458 92.576C559.049 91.1955 556.449 89.2419 552.627 86.7078C539.271 76.7463 525.36 67.7088 512.167 57.7264C512.117 61.5856 512.594 89.3795 511.318 90.6971C510.497 91.5474 508.033 91.9417 506.905 91.8504C506.183 91.7918 505.75 91.5393 505.326 90.9246C502.479 86.7765 503.354 61.8535 504.545 56.282C505.204 53.207 505.971 51.3331 508.651 49.5692ZM299.103 49.9637C314.661 49.9346 335.901 47.167 338.473 68.5955C339.633 78.234 335.729 84.0017 327.657 89.1111L327.66 89.1121C324.085 91.6582 317.346 92.1352 310.52 92.1307C310.515 92.1307 310.51 92.1307 310.504 92.1307C309.339 92.1298 308.171 92.1147 307.015 92.0936C304.197 92.0421 301.455 91.9552 299.012 91.9451C297.289 91.9381 295.715 91.9699 294.368 92.0809C294.097 92.1032 293.822 92.1142 293.544 92.117C293.542 92.117 293.541 92.117 293.54 92.117C293.274 92.1195 293.005 92.1138 292.734 92.0994C288.738 91.8892 284.154 89.8984 281.14 87.4461C277.102 85.1856 274.774 80.3414 273.569 76.0447C272.083 70.9395 272.749 65.4433 275.41 60.8484C281.032 50.9706 288.414 49.9833 299.103 49.9637ZM172.929 50.2947C173.349 50.5324 174.074 50.7727 174.101 51.2361C174.554 58.8888 176.175 86.3196 173.033 91.9256C171.879 91.8165 168.913 91.4457 168.704 90.076C167.429 81.7197 166.611 57.8425 169.089 50.4871C170.569 50.3126 171.438 50.2888 172.929 50.2947ZM242.983 31.2723C245.98 22.5738 251.828 19.9019 257.836 28.1854L257.931 28.4656C257.989 28.6555 258.043 28.8789 258.096 29.1336C258.225 29.7525 258.342 30.557 258.447 31.5203C258.601 32.9421 258.73 34.7094 258.836 36.7352C259.476 49.0571 259.261 70.9391 258.78 82.7567C258.756 83.346 258.731 83.9103 258.706 84.4471C258.605 86.5943 258.494 88.3021 258.379 89.4149C258.301 90.1752 257.263 90.8407 256.461 91.0467C254.974 91.4286 254.31 91.6373 253.074 91.1004C252.92 91.0336 252.757 90.9561 252.583 90.8651C252.392 90.6776 252.217 90.4622 252.055 90.2234C252.025 90.1791 251.995 90.1347 251.965 90.0887C251.904 89.9912 251.844 89.8897 251.787 89.785C251.772 89.7578 251.756 89.7306 251.742 89.7029C251.726 89.6724 251.71 89.6413 251.694 89.6102C251.666 89.5559 251.639 89.5011 251.612 89.4451C251.592 89.4027 251.572 89.3596 251.552 89.3162C251.54 89.2896 251.527 89.2632 251.515 89.2361C251.484 89.1655 251.454 89.0934 251.424 89.0203C251.418 89.0037 251.411 88.9872 251.404 88.9705C251.383 88.9177 251.362 88.8644 251.341 88.8104C251.33 88.7793 251.318 88.7481 251.306 88.7166C251.291 88.6756 251.277 88.6342 251.262 88.5926C251.243 88.5365 251.223 88.4799 251.204 88.4227C251.191 88.3845 251.179 88.3461 251.167 88.3074C251.154 88.2667 251.141 88.2256 251.128 88.1844C251.081 88.0288 251.037 87.8689 250.994 87.7059C250.983 87.6669 250.973 87.628 250.962 87.5887C250.931 87.4641 250.901 87.3373 250.872 87.2088C250.852 87.1223 250.832 87.0352 250.813 86.9471C250.79 86.8361 250.768 86.7237 250.747 86.6102C250.727 86.5094 250.707 86.4081 250.689 86.3055C250.671 86.202 250.655 86.0973 250.638 85.992C250.618 85.8678 250.598 85.7426 250.58 85.616C250.564 85.5062 250.549 85.3955 250.535 85.284C250.521 85.1779 250.506 85.0712 250.494 84.9637C250.474 84.7989 250.457 84.6325 250.44 84.4647C250.433 84.3975 250.426 84.3301 250.419 84.2625C250.406 84.118 250.394 83.9724 250.381 83.826C250.372 83.7071 250.362 83.5876 250.353 83.4676C250.344 83.3454 250.336 83.2227 250.328 83.0994C250.32 82.9804 250.313 82.8609 250.306 82.741C250.297 82.5793 250.289 82.4168 250.282 82.2537C250.279 82.1829 250.275 82.1119 250.272 82.0408C250.265 81.864 250.258 81.6866 250.252 81.5086C250.25 81.4205 250.247 81.3323 250.245 81.244C250.241 81.1065 250.238 80.9688 250.235 80.8309C250.232 80.6998 250.229 80.5686 250.227 80.4373C250.225 80.3143 250.223 80.1913 250.222 80.0682C250.221 79.9556 250.221 79.8429 250.22 79.7303C250.218 79.4119 250.22 79.0936 250.221 78.7762C250.222 78.5847 250.221 78.3935 250.223 78.2029C250.226 77.8791 250.232 77.5568 250.237 77.2371C250.242 76.946 250.247 76.657 250.252 76.3709C250.257 76.1768 250.261 75.984 250.265 75.7928C250.288 74.8132 250.31 73.8738 250.326 73.0057C250.347 71.8541 250.353 70.8275 250.311 69.9979C250.511 59.4899 251.578 50.2423 251.847 40.1893C251.643 37.7213 251.384 35.1226 251.253 32.6609C246.936 40.728 245.297 44.904 242.818 53.7527C242.074 56.0384 241.442 58.0671 240.831 60.3904C239.452 66.5623 233.261 89.2333 226.86 91.3113C218.483 94.0304 215.016 77.5861 213.049 71.7401C209.649 61.7281 206.308 51.6948 203.025 41.6434L202.165 41.4393C199.607 47.3943 202.494 84.9369 200.291 88.5174C199.89 89.1695 198.904 89.7556 198.282 90.1756C197.901 90.4328 198.052 90.3146 197.706 90.6707L197.126 91.4227C195.696 92.0443 192.799 91.6802 192.541 90.4901C190.76 82.2862 190.178 68.4105 190.381 55.6404C190.522 46.7976 191.039 38.484 191.795 32.951C191.87 28.0554 195.467 21.4996 201.752 23.8533C203.235 24.409 205.687 27.41 206.339 28.9305C211.258 40.3905 214.37 52.7727 218.437 64.5809C220.695 71.1733 223.408 77.2336 225.49 83.7469C225.941 81.8048 226.526 79.9345 227.166 78.0438C232.439 62.4628 237.627 46.816 242.983 31.2723ZM364.651 24.1102C366.704 23.8874 368.928 23.5219 370.774 24.4637C372.051 27.3536 371.581 45.4259 371.568 49.9695C376.423 49.9386 386.987 48.9463 390.2 53.2977C389.518 58.5495 375.277 57.6001 371.595 57.5828C371.482 63.3275 372.223 87.8445 370.626 91.3934C368.649 91.3975 366.587 91.4523 364.935 90.3524C363.36 87.1709 363.992 63.1964 364.01 57.7078C358.036 57.6383 352.062 57.4765 346.087 57.2215C346.002 55.0221 346.092 52.6344 346.132 50.4158C352.134 50.0617 358.145 49.8863 364.155 49.8895C363.965 44.9878 363.537 28.2002 364.651 24.1102ZM403.204 50.3543C405.6 50.2875 408.24 50.3965 410.654 50.4451C411.218 56.1961 411.376 85.8412 410.501 90.9861C407.978 91.3425 405.645 91.2547 403.114 91.2283C402.333 77.614 402.36 63.9646 403.204 50.3543ZM306.011 57.6082C290.602 55.2117 272.166 61.3656 284.348 80.8904L284.649 81.0906C291.262 85.1956 316.176 83.9823 323.51 82.7049L323.786 82.6561L324.191 82.4393C334.389 76.9476 332.724 60.6552 321.132 58.2781C316.53 56.6739 310.411 58.2923 306.011 57.6082ZM469.11 57.6531C460.659 57.6886 452.117 57.321 443.566 57.8123C439.609 58.4746 436.792 59.7521 434.342 63.1707C432.353 65.9374 431.541 69.3879 432.086 72.7586C432.714 76.6074 434.568 79.2985 437.28 81.9324C444.184 84.2942 465.085 84.2873 472.39 83.2137C488.228 81.1112 485.566 57.585 469.11 57.6531ZM561.724 58.0818C554.464 62.9907 550.85 65.518 543.973 71.1404C546.599 72.8413 549.33 74.5106 551.721 76.5174C555.241 79.2263 558.313 81.3583 562 83.8309C562.162 80.3994 562.915 60.1287 561.724 58.0818ZM285.927 83.3221C286.058 83.3845 286.192 83.4432 286.329 83.4988C286.192 83.4432 286.058 83.3836 285.927 83.3211C285.852 83.285 285.782 83.2494 285.716 83.2147C285.782 83.2494 285.852 83.286 285.927 83.3221ZM250.102 69.5643C250.073 69.4838 250.045 69.3967 250.017 69.3035C250.045 69.3966 250.073 69.4839 250.102 69.5643ZM250.017 69.3035C250.008 69.2726 249.999 69.241 249.99 69.2088C249.999 69.2411 250.008 69.2726 250.017 69.3035ZM249.99 69.2088C249.971 69.1431 249.954 69.0747 249.936 69.0037C249.954 69.0747 249.971 69.1432 249.99 69.2088ZM249.936 69.0037C249.931 68.9816 249.924 68.959 249.919 68.9363C249.915 68.9205 249.911 68.9045 249.908 68.8885C249.917 68.9277 249.927 68.966 249.936 69.0037ZM249.908 68.8885C249.884 68.7838 249.86 68.674 249.837 68.5594V68.5584C249.86 68.6732 249.884 68.7836 249.908 68.8885ZM249.816 68.4354C249.788 68.2874 249.76 68.1324 249.735 67.9705C249.76 68.1324 249.788 68.2874 249.816 68.4354ZM249.735 67.9705C249.722 67.8886 249.712 67.8047 249.7 67.7195C249.712 67.8047 249.722 67.8886 249.735 67.9705ZM249.7 67.7195C249.68 67.5801 249.66 67.4365 249.642 67.2889C249.66 67.4365 249.68 67.5801 249.7 67.7195ZM249.642 67.2889C249.634 67.2184 249.625 67.1472 249.617 67.075C249.625 67.1472 249.634 67.2184 249.642 67.2889ZM249.617 67.075C249.597 66.8985 249.578 66.717 249.56 66.5311C249.578 66.717 249.597 66.8985 249.617 67.075ZM11.6578 12.5193C13.5401 27.7685 11.8805 50.6195 12.5103 66.8631C20.0869 61.498 27.1385 56.929 34.8599 51.3289C40.721 47.4333 46.2579 44.1792 50.2877 38.2303C45.7665 35.4385 41.343 32.7408 37.0298 29.6209C29.1137 23.8942 20.5044 16.7375 11.6578 12.5193ZM249.56 66.5311C249.553 66.4613 249.546 66.3911 249.54 66.3201C249.546 66.3911 249.553 66.4613 249.56 66.5311ZM249.54 66.3201C249.535 66.2675 249.53 66.2142 249.525 66.1609C249.519 66.0883 249.515 66.0149 249.509 65.9412C249.52 66.0691 249.528 66.1956 249.54 66.3201ZM249.509 65.9412C249.491 65.7119 249.474 65.4776 249.459 65.2391C249.474 65.4776 249.491 65.7119 249.509 65.9412ZM249.459 65.2391C249.454 65.1692 249.447 65.0987 249.443 65.0281C249.439 64.9688 249.437 64.9092 249.434 64.8494C249.441 64.9804 249.45 65.1103 249.459 65.2391ZM249.344 61.3846L249.353 62.6131C249.346 62.2031 249.343 61.7917 249.343 61.3846L249.358 60.1785C249.35 60.5737 249.345 60.9775 249.344 61.3846Z" fill="white"/>
</g>
<defs>
<clipPath id="clip0_813_4350">
<rect width="570" height="114" fill="white"/>
</clipPath>
</defs>
</svg>
