<svg width="237" height="188" viewBox="0 0 237 188" fill="none" xmlns="http://www.w3.org/2000/svg">
<g clip-path="url(#clip0_813_3863)">
<path d="M222.331 160.373C230.009 160.096 236.188 165.809 236.775 173.441C236.903 175.114 236.835 176.898 236.834 178.58C236.818 181.29 236.822 184 236.847 186.71C235.019 186.644 233.09 186.669 231.262 186.7L231.279 184.999C229.236 186.5 227.86 186.977 225.505 187.637C225.208 187.703 224.909 187.76 224.608 187.807C221.313 188.288 217.13 186.992 214.571 184.924C204.788 177.02 209.21 161.808 221.778 160.413C221.962 160.392 222.146 160.379 222.331 160.373ZM133.177 160.296C133.546 160.296 133.914 160.306 134.283 160.327C140.586 160.701 145.906 165.341 146.962 171.619C147.263 173.407 147.146 174.911 147.027 176.697C145.006 176.523 141.489 176.624 139.378 176.625L125.587 176.631C125.927 177.471 126.266 178.181 126.809 178.916C128.088 180.674 130.019 181.844 132.17 182.164C134.9 182.569 136.831 181.777 138.966 180.182C139.968 180.132 141.231 180.16 142.254 180.157L145.208 180.153C145.075 181.451 144.732 182 143.861 182.998C141.376 185.793 137.899 187.51 134.168 187.784C130.762 188.023 126.88 186.503 124.334 184.255C121.61 181.866 119.963 178.483 119.766 174.868C119.524 171.187 120.775 167.564 123.236 164.814C125.97 161.813 129.174 160.467 133.177 160.296ZM57.4883 160.29C65.0427 160.02 71.3964 165.899 71.7051 173.447C72.0139 180.995 66.1618 187.375 58.6104 187.722C51.0047 188.071 44.565 182.171 44.2539 174.569C43.9428 166.967 49.8793 160.562 57.4883 160.29ZM165.067 160.348C168.863 160.297 172.518 161.791 175.191 164.483C179.57 168.818 179.305 173.2 179.298 178.767L179.293 186.709C177.56 186.603 174.973 186.646 173.245 186.694C173.228 183.817 173.229 180.939 173.249 178.063C173.253 176.713 173.313 174.432 173.116 173.171C172.965 172.16 172.619 171.186 172.097 170.308C170.867 168.202 169.147 167.144 166.837 166.55C164.262 166.094 161.554 166.817 159.677 168.673C158.674 169.663 157.953 170.905 157.59 172.267C157.122 174.031 157.258 177.16 157.261 179.062L157.273 186.692C155.367 186.63 153.119 186.639 151.225 186.69L151.215 178.97C151.211 174.033 150.88 169.951 154.163 165.748C156.637 162.58 159.912 160.89 163.862 160.409C164.263 160.376 164.665 160.355 165.067 160.348ZM207.246 160.562C207.204 162.53 207.226 164.615 207.22 166.591C204.183 166.419 200.328 166.551 197.205 166.544L197.212 176.91C197.212 180.134 197.164 183.492 197.239 186.705C195.315 186.609 193.07 186.657 191.132 186.683L191.142 166.582C189.171 166.474 183.151 166.445 181.215 166.615L181.239 160.576C189.807 160.639 198.685 160.664 207.246 160.562ZM10.8535 160.534C14.5949 160.136 17.6143 161.716 20.2559 164.208L20.3252 164.133C22.4956 161.855 25.1973 160.569 28.3574 160.499C31.4428 160.402 34.4364 161.558 36.6543 163.703C38.1563 165.14 39.2307 166.966 39.7568 168.976C40.3623 171.283 40.1958 174.595 40.1924 177.039C40.1717 180.259 40.1727 183.481 40.1963 186.701C38.7691 186.529 35.5986 186.582 34.1543 186.682C34.0849 182.135 34.2302 177.556 34.1572 173.007C34.1288 171.228 33.9368 169.597 32.6777 168.25C31.6778 167.19 30.289 166.581 28.8311 166.562C27.3324 166.537 25.8859 167.115 24.8174 168.165C22.7526 170.232 23.2394 173.954 23.2568 176.787C23.2539 180.055 23.2132 183.421 23.3027 186.68C21.5292 186.56 18.9344 186.56 17.1787 186.68L17.1885 176.877C17.1966 175.043 17.3375 172.848 17.0752 171.057C16.2093 165.149 7.62729 165.067 6.51562 170.862C6.17749 172.626 6.34738 175.041 6.34961 176.884L6.33008 186.673C4.2679 186.578 2.20259 186.57 0.139648 186.647C0.286034 183.176 0.118747 179.517 0.174805 176.031C0.218408 174.098 0.0314642 172.153 0.397461 170.241C1.44338 164.776 5.30875 161.09 10.8535 160.534ZM87.0557 160.491C90.7092 160.476 93.1857 161.735 95.7422 164.248C95.837 164.144 95.9332 164.039 96.0303 163.938C98.0619 161.781 100.882 160.541 103.846 160.5C106.963 160.403 109.986 161.582 112.214 163.763C113.645 165.151 114.683 166.894 115.218 168.814C115.835 171.079 115.668 174.59 115.665 177.007C115.648 180.231 115.648 183.455 115.664 186.679C113.914 186.546 111.384 186.571 109.646 186.685C109.574 182.448 109.687 178.187 109.645 173.948C109.633 172.808 109.664 171.65 109.391 170.534C109.176 169.656 108.728 168.851 108.096 168.205C107.064 167.156 105.657 166.562 104.186 166.554C102.739 166.557 101.351 167.134 100.329 168.157C98.2402 170.283 98.7507 174.003 98.7686 176.91C98.7587 180.164 98.7676 183.417 98.7959 186.671C97.1032 186.59 94.321 186.515 92.6855 186.684C92.69 186.586 92.6942 186.488 92.6973 186.391C92.8186 182.767 92.6265 179.037 92.7227 175.404C92.7777 173.323 92.8992 170.916 91.833 169.084C90.9124 167.503 89.2474 166.578 87.4199 166.57C81.1171 166.848 81.8253 172.333 81.8271 176.877L81.8213 186.685C80.42 186.571 77.1005 186.538 75.7725 186.689C75.8558 182.523 75.7359 178.32 75.7783 174.15C75.7952 172.482 75.7249 171.032 76.0898 169.38C76.4803 167.636 77.2813 166.01 78.4258 164.636C80.5254 162.096 83.0967 160.861 86.332 160.536C86.5721 160.507 86.8138 160.491 87.0557 160.491ZM231.218 173.383C230.829 168.838 226.825 165.467 222.275 165.857C217.727 166.246 214.356 170.245 214.745 174.79C215.134 179.335 219.137 182.706 223.686 182.317C228.234 181.928 231.607 177.928 231.218 173.383ZM66.1543 172.752C65.4619 168.241 61.2404 165.145 56.7266 165.84C52.2155 166.532 49.1207 170.748 49.8125 175.257C50.5044 179.765 54.7208 182.86 59.2324 182.171C63.7471 181.481 66.8465 177.264 66.1543 172.752ZM136.623 166.36C135.294 165.809 133.842 165.62 132.417 165.813C128.771 166.406 126.612 168.5 125.433 171.922C128.517 171.88 131.603 171.87 134.688 171.893C136.879 171.894 139.365 171.845 141.53 171.926C140.509 169.386 139.276 167.476 136.623 166.36ZM130.134 0.128906C143.655 0.406949 157.737 0.110087 171.307 0.15625C172.087 2.08673 172.656 4.27919 173.269 6.28809L176.316 16.1826L187.886 54.5498L204.152 108.18C207.041 117.657 210.24 127.5 212.872 137.016C207.966 136.843 202.293 136.972 197.339 136.972L171.453 136.995C171.159 135.71 170.579 134.022 170.182 132.734L168.008 125.585C165.477 117.027 162.887 108.486 160.24 99.9629L133.854 12.6943C133.388 11.1226 130.04 0.854595 130.134 0.128906ZM65.6045 0.108398C67.0979 0.221914 69.2134 0.168306 70.7363 0.168945L79.5195 0.170898L106.582 0.145508C107.205 1.29214 107.943 4.05238 108.327 5.3877L109.995 10.999L117.592 36.0713L140.469 111.573C142.883 119.81 146.096 128.789 148.161 137.002C134.532 136.787 120.457 136.974 106.783 136.972C106.239 135.524 105.602 133.161 105.146 131.632L101.935 120.83L90.8047 84.3154C90.0098 82.0266 89.2004 79.0273 88.4883 76.6641C87.7017 74.0544 86.5708 70.502 86.0537 67.9111C85.6962 69.9227 84.8506 72.6035 84.2754 74.6104C82.9209 79.3359 81.3202 84.0319 79.9219 88.7432L65.3242 137.001C59.0276 136.915 52.6061 136.975 46.3018 136.974L23.9102 136.994C24.3835 135.164 25.0702 133.099 25.6094 131.263L30.4307 115.412L40.0938 83.5449L56.9316 27.9766L62.582 9.31641C63.0482 7.79241 64.919 1.01137 65.6045 0.108398Z" fill="white"/>
</g>
<defs>
<clipPath id="clip0_813_3863">
<rect width="237" height="188" fill="white"/>
</clipPath>
</defs>
</svg>
