<svg width="580" height="88" viewBox="0 0 580 88" fill="none" xmlns="http://www.w3.org/2000/svg">
<g clip-path="url(#clip0_813_4393)">
<path d="M580.072 0.0312388C574.973 5.50976 569.148 11.1533 563.844 16.4824L536.342 44.0742L579.871 87.8281C577.935 88.4423 549.88 87.9934 546.145 87.9961C543.372 85.4832 539.76 81.6226 537.054 78.9072L519.35 61.1328C510.909 70.0235 501.382 79.2455 492.682 87.9678C481.483 88.138 469.857 87.9789 458.623 87.9824C463.148 83.1386 468.645 77.8633 473.36 73.1221L502.348 44.0185C488.067 29.8534 472.476 14.5201 458.638 0.0341685L492.53 0.0468638L519.344 26.9892C526.939 18.6771 538.013 8.10314 546.133 0.035145L580.072 0.0312388ZM242.489 0.123036C244.323 -0.219752 249.143 0.0196562 251.256 0.0214732L270.81 0.0429575L296.025 0.01952C299.885 0.0093803 306.962 -0.212401 310.574 0.273426C314.061 0.732429 317.385 2.03009 320.266 4.05663C324.773 7.2512 327.815 12.1356 328.701 17.6084C329.398 21.7671 329.054 37.1404 329.068 42.2715L329.11 58.8994C329.115 62.1599 329.266 66.7095 328.797 69.8115C328.295 73.2023 327.004 76.4263 325.03 79.2207C321.199 84.6107 316.269 86.8752 309.988 87.9267C289.642 88.5554 269.042 87.4906 248.485 87.9932C232.462 88.3849 222.631 80.6954 222.901 63.3467C222.985 58.0107 222.954 51.67 222.945 46.2646L222.905 29.9004C222.896 26.064 222.703 21.0933 223.379 17.4326C224.035 13.9088 225.543 10.6011 227.769 7.79979C231.534 3.09278 236.614 0.775468 242.489 0.123036ZM363.448 56.0019C363.457 60.0508 363.772 63.7335 368.811 63.9932C374.394 64.2806 380.039 64.1529 385.634 64.1494L419.168 64.0908L419.165 87.9756L382.337 87.9971C376.847 87.9982 359.492 88.3871 355.249 87.2744C351.625 86.3006 348.321 84.3773 345.677 81.7012C339.504 75.477 339.414 69.0208 339.51 60.8301C339.568 55.9252 339.516 50.8437 339.519 45.916L339.516 0.0341685L363.522 0.0244028L363.448 56.0019ZM145.698 0.0117075L159.602 0.0478403L212.504 0.026356C212.405 7.96506 212.498 16.1324 212.499 24.0879L169.574 24.0723C163.165 24.0686 156.751 24.02 150.343 24.1182C144.403 24.2091 143.584 26.713 143.635 31.9795L207.218 31.9687L207.215 56.0303L156.6 56.0381L143.63 56.0527C143.624 56.3238 143.62 56.5951 143.617 56.8662C143.566 64.2717 147.388 63.9281 153.449 63.9433C158.814 63.9571 164.22 63.9408 169.586 63.9385L212.504 63.9121C212.406 71.8526 212.498 80.0164 212.498 87.9736L162.031 87.9951C158.72 87.9957 155.292 88.1037 152.006 87.9941C143.354 87.7049 135.091 89.4474 127.81 83.4726C120.519 77.4897 119.461 71.0215 119.66 62.1045C119.777 56.9022 119.711 51.4215 119.702 46.2558L119.66 29.4932C119.651 25.9355 119.474 20.8379 120.073 17.4697C120.696 14.0117 122.153 10.7597 124.317 7.99901C128.137 3.14036 133.138 0.822138 139.159 0.117176C139.902 -0.0233128 144.774 0.00936352 145.698 0.0117075ZM20.2072 0.0224497C26.758 0.0348503 31.0623 2.98001 35.4679 7.47069C39.7586 11.8444 44.107 16.2026 48.4269 20.5498L85.2296 57.5205L85.1896 0.0341685L109.229 0.0244028L109.236 47.8389C109.237 55.2385 109.532 63.6977 108.974 71.0215C108.29 79.9912 100.912 86.4419 92.0841 87.874C91.2742 87.9297 90.4104 87.9828 89.6007 87.9834C85.8098 87.9977 82.1018 86.8686 78.9552 84.7432C75.8073 82.5896 65.1673 71.3865 61.9152 68.1182L24.4113 30.4531L24.42 87.9785L0.430791 87.9902L0.416142 40.1299C0.415935 37.1467 0.31983 34.0086 0.416142 31.0527C0.670656 23.2409 -0.871645 14.6796 4.19056 8.02831C7.86426 3.20138 12.2645 0.844895 18.1632 0.111317C18.843 0.0575998 19.5252 0.0273437 20.2072 0.0224497ZM453.588 87.9785L429.598 87.9883L429.589 0.0341685L453.597 0.0244028L453.588 87.9785ZM298.565 24.1396C283.021 24.3612 266.961 23.6361 251.451 24.1338C249.998 24.563 248.737 25.1147 247.958 26.5234C247.355 27.6136 247.05 28.8989 246.943 30.1338C246.669 33.3298 246.838 58.6107 247.312 60.2412C247.704 61.5891 248.573 62.6322 249.803 63.2969C252.3 64.6473 294.149 63.9213 300.693 63.8955C303.486 62.9654 305.159 60.8761 305.153 57.8398C305.13 48.3328 305.183 38.7589 305.04 29.2627C304.982 25.4209 301.894 24.2144 298.565 24.1396Z" fill="white"/>
</g>
<defs>
<clipPath id="clip0_813_4393">
<rect width="580" height="88" fill="white"/>
</clipPath>
</defs>
</svg>
