<svg width="512" height="88" viewBox="0 0 512 88" fill="none" xmlns="http://www.w3.org/2000/svg">
<g clip-path="url(#clip0_813_4404)">
<path d="M40.8679 0.821104C51.5061 0.325627 61.7975 2.49472 70.7234 8.46173C80.1692 14.7828 86.7357 24.5432 89.0066 35.6346C91.7199 49.5698 87.7909 59.5931 80.1628 70.7899C80.5069 71.5236 80.9341 72.2411 81.3709 72.9236C84.3658 77.6076 86.8783 82.5779 89.738 87.3309C84.5686 86.8665 78.1872 86.9755 72.8767 86.9354C70.9483 85.2227 69.4446 83.5245 67.8933 81.4803C65.5564 82.4925 63.1273 83.3514 60.7341 84.2293C44.9065 89.0238 29.2903 87.9166 15.7947 77.3133C6.80753 69.9764 0.899696 60.6546 -0.317622 49.1063C-3.07626 22.9322 15.0968 3.31455 40.8679 0.821104ZM219.748 0.431455C225.182 0.401645 232.399 0.15019 237.618 1.01837C240.449 1.47962 243.176 2.43008 245.677 3.82599C251.252 6.88238 256.115 12.2754 257.677 18.4666C261.907 35.2365 253.093 47.3141 237.13 51.7029C243.837 62.9374 254.018 75.6841 260.165 87.2899C255.07 86.93 248.774 87.0658 243.569 87.0203C242.05 85.0783 240.606 82.9656 239.181 80.9461C233.567 71.8391 226.505 60.6291 220.233 51.9783C213.37 51.8428 204.304 51.8639 197.479 52.1287C197.128 63.5617 197.32 75.7093 197.282 87.2C192.713 87.0196 188.306 87.1106 183.742 87.1834C183.456 70.0759 183.669 52.5156 183.658 35.3748L183.633 18.2234C183.63 14.8458 183.537 11.5843 183.815 8.20782C184.457 0.415403 189.904 0.6368 196.011 0.539854L219.748 0.431455ZM304.461 0.821104C308.347 0.514533 313.174 0.437742 316.966 1.11798C318.62 2.30429 319.971 3.86373 320.902 5.66681C322.563 8.8819 324.426 13.9942 325.878 17.45L336.88 43.8885L349.173 72.8543C351.228 77.6743 353.454 82.3213 355.262 87.241C350.325 86.9894 344.554 87.0717 339.532 87.0447C335.011 78.0532 331.494 67.687 327.374 58.4451L315.125 58.41L292.401 58.4451C290.52 61.6796 288.477 67.1094 287.012 70.7039C284.793 76.2226 282.457 81.6939 280.001 87.1141C274.808 87.0507 269.614 87.0662 264.421 87.1609L287.552 32.4793L294.507 15.8289C296.259 11.6316 298.008 7.08834 300.401 3.21954C301.468 1.49864 302.621 1.19949 304.461 0.821104ZM141.157 1.76642C150.63 1.44542 162.317 1.73684 171.943 1.74688L171.927 15.4442C169.495 15.3211 164.466 15.2048 162.045 15.2899C148.125 15.7781 131.738 12.4983 121.064 23.533C115.598 29.1842 112.228 36.6479 112.217 44.3572C112.248 52.1531 115.413 59.6129 121.007 65.0779C130.101 74.0516 139.088 73.7556 150.99 73.7537L167.138 73.742L171.934 73.7733C171.979 78.2339 171.933 82.7653 171.93 87.2322C164.941 87.1582 157.952 87.1434 150.963 87.1883C136.31 87.1952 125.743 87.0524 113.698 76.7752C105.031 69.3404 99.6642 58.807 98.7634 47.4627C97.954 36.6624 101.711 25.2892 108.811 17.0203C117.908 6.42503 127.558 2.77433 141.157 1.76642ZM512.366 0.450986C511.116 4.97076 509.326 9.79979 507.769 14.2606L481.809 14.2244L481.806 61.1014C481.844 69.7976 481.822 78.4943 481.74 87.1902C477.213 86.9276 472.162 87.0749 467.613 87.1942C467.234 78.9507 467.465 69.2917 467.465 60.9666L467.439 14.2068C457.722 14.2605 446.493 14.5117 436.874 14.1424L441.404 0.479307C446.032 0.757629 451.847 0.634266 456.542 0.63458L481.819 0.624815L500.767 0.633604C504.243 0.634545 508.994 0.766333 512.366 0.450986ZM369.513 0.679502C390.697 0.281613 411.981 0.978738 433.148 0.60626L433.445 0.622861C433.717 1.58023 429.553 12.6321 428.858 14.2254C410.908 14.4344 392.597 14.2527 374.618 14.2859C374.242 21.2573 374.426 29.7001 374.423 36.7879C392.345 37.0565 410.44 36.5938 428.344 36.9481C426.778 41.7556 424.962 46.4792 422.904 51.0994C408.382 51.2937 393.522 51.1369 378.971 51.1385L374.571 51.1717C374.277 55.1871 374.438 61.0214 374.426 65.1883C374.403 72.4006 374.346 79.9481 374.58 87.1385C370.037 87.05 365.343 87.1174 360.788 87.1268L360.794 32.8065C360.794 24.4425 360.538 15.8952 360.894 7.55255C361.298 2.35354 364.933 0.765483 369.513 0.679502ZM74.825 40.4725C72.9506 23.7863 57.826 11.7671 41.0378 13.6229C24.2399 15.48 12.1395 30.5242 14.0144 47.2205C15.8896 63.9168 31.0303 75.939 47.8269 74.0682C64.6137 72.1985 76.6989 57.1593 74.825 40.4725ZM309.736 16.8524C306.377 23.1901 303.633 31.4958 300.694 38.158C299.794 40.1989 298.965 42.9891 298.002 44.9236L310.146 45.0281L321.458 44.9217C319.932 41.3977 311.094 17.7229 309.736 16.8524ZM235.841 14.8387C232.207 14.0023 224.649 14.2255 220.686 14.2274L197.49 14.243C197.293 22.3047 197.251 30.3698 197.363 38.4334L220.359 38.4793C227.942 38.489 235.152 39.6747 241.353 34.742C243.828 32.1461 245.365 29.8269 245.264 26.0604C245.18 22.9255 243.82 19.9584 241.494 17.8397C239.903 16.3699 237.954 15.3357 235.841 14.8387Z" fill="white"/>
</g>
<defs>
<clipPath id="clip0_813_4404">
<rect width="512" height="88" fill="white"/>
</clipPath>
</defs>
</svg>
