<svg width="596" height="146" viewBox="0 0 596 146" fill="none" xmlns="http://www.w3.org/2000/svg">
<g clip-path="url(#clip0_813_4320)">
<path d="M146.498 98.4463C146.498 114.058 146.698 130.152 146.422 145.734L0.182676 145.674C-0.0542463 128.808 0.148319 111.471 0.14752 94.5752L0.162168 0H146.505L146.498 98.4463ZM23.7442 12.2344C20.1851 12.2351 15.7165 12.3992 12.2823 12.2764C12.0608 26.426 12.2253 40.9593 12.2256 55.1318L12.2305 133.464C36.1944 133.892 61.6155 133.635 85.6524 133.506C85.6173 121.032 86.0824 105.675 85.585 93.4824C82.8002 91.2167 80.0932 88.256 77.5645 85.6738C68.2185 76.1299 58.2984 66.9421 49.1163 57.2568C48.8648 42.4354 49.0565 27.1025 49.0665 12.2422L23.7442 12.2344ZM84.2159 12.2363C78.1884 12.239 67.0336 12.6066 61.335 12.252L61.2715 52.2725L85.8223 76.707C89.3639 80.2224 94.1357 85.2706 97.7051 88.4287C98.0386 101.195 97.6345 114.092 97.7833 126.871C97.8081 129.025 97.8359 131.338 97.7569 133.486L134.334 133.535L134.309 12.2666L84.2159 12.2363ZM497.505 49.2119C499.684 48.5425 509.484 48.9504 512.124 49.1602C509.1 50.8054 504.647 54.0439 501.67 55.998L478.046 71.6572C481.632 74.9079 490.696 80.8281 495.037 83.835C500.737 88.0576 507.121 92.3874 512.976 96.4521C508.801 96.5043 502.3 97.475 498.395 96.3447C495.505 95.5087 466.187 74.7403 462.946 71.9385C462.73 80.133 463.014 88.4677 462.788 96.7451C459.536 96.7498 456.287 96.7218 453.037 96.6631L452.982 63.1797C452.979 61.2962 452.829 50.1493 453.219 48.9785C456.456 48.8959 459.694 48.9036 462.932 49.002C462.542 55.2045 462.908 65.1881 462.847 71.8174C470.004 67.6045 477.472 61.8301 484.589 57.3545C487.481 55.536 494.595 50.1049 497.505 49.2119ZM372.015 48.9766C387.331 48.5303 406.037 48.842 421.45 48.9775C421.453 51.856 421.436 54.7348 421.398 57.6133C412.323 58.029 402.788 57.4215 393.66 57.667C389.656 57.7749 385.3 57.8104 381.304 57.708L381.269 67.7959C393.786 68.0597 406.846 67.779 419.448 67.8721C419.463 70.6677 419.457 73.4634 419.437 76.2588C412.613 76.3885 405.326 76.2568 398.464 76.251L381.318 76.2822C381.222 80.1049 381.286 84.2131 381.28 88.0576C394.161 88.4503 408.379 88.0817 421.424 88.1611C421.477 91.0388 421.45 93.9174 421.351 96.7939L388.774 96.7383C384.723 96.7362 375.545 96.4981 372.026 96.8516C371.643 81.7763 371.877 64.1181 372.015 48.9766ZM290.854 48.9932C306.294 48.6133 324.588 48.7873 340.077 48.9854L340.054 57.6016C336.225 57.7976 331.312 57.66 327.419 57.6582C318.259 57.5919 309.098 57.6332 299.939 57.7812C299.845 60.9869 299.906 64.5544 299.895 67.7871C312.175 68.096 325.721 67.8306 338.077 67.8564C338.13 70.6574 338.127 73.4598 338.065 76.2607L316.496 76.251L299.959 76.292C299.81 79.9678 299.912 84.3141 299.912 88.04C312.611 88.4749 327.197 88.1051 340.065 88.1514C340.089 91.0282 340.077 93.9057 340.033 96.7822L307.538 96.7285C302.371 96.7239 295.74 96.5336 290.664 96.7939C290.517 91.9689 290.257 50.5017 290.854 48.9932ZM564.856 48.8975C576.085 48.5871 591.629 48.772 592.496 63.6875C592.713 67.4021 591.387 71.0728 588.796 73.7158C583.579 79.1249 576.439 78.7905 569.498 78.8926C572.478 80.1879 579.211 85.0109 582.329 87.127C586.641 90.0523 592.045 93.3729 596.129 96.3975L593.065 96.5762C590.913 96.566 584.244 96.9919 582.698 96.3691C578.694 94.7545 573.1 90.4554 569.443 87.9863C561.425 82.6104 553.444 77.1784 545.502 71.6914C545.514 79.5593 545.761 89.0172 545.386 96.7568C543.278 96.5198 538.242 96.6299 535.643 96.4746C535.643 91.8515 535.406 50.0398 535.859 48.9961C536.181 48.9818 536.503 48.9695 536.825 48.959C546.085 48.6544 555.573 49.154 564.856 48.8975ZM236.552 48.916C243.312 48.8529 254.675 48.6108 261.159 49.1279C258.648 51.0156 251.735 58.6448 249.091 61.335C240.318 70.2608 231.716 79.6821 222.843 88.5088C234.644 88.4899 246.939 88.3039 258.7 88.5654C258.732 91.2585 258.707 93.9804 258.702 96.6758L202.803 96.5508L226.523 71.9316C231.064 67.2085 236.147 61.6967 240.856 57.249C229.092 57.0663 216.874 57.2498 205.064 57.207C205.023 54.4896 205.051 51.707 205.047 48.9834C215.045 48.6352 226.417 49.0106 236.552 48.916ZM582.818 64.2764C583.776 55.5956 571.79 57.2385 565.783 57.2539L545.508 57.3057L545.465 71.5596C551.621 71.7594 558.117 71.6532 564.285 71.6143C569.063 71.5841 577.239 72.3875 581.144 69.7402C583.319 67.4551 582.511 67.0505 582.818 64.2764Z" fill="white"/>
</g>
<defs>
<clipPath id="clip0_813_4320">
<rect width="596" height="146" fill="white"/>
</clipPath>
</defs>
</svg>
