<svg width="450" height="64" viewBox="0 0 450 64" fill="none" xmlns="http://www.w3.org/2000/svg">
<g clip-path="url(#clip0_813_6181)">
<path d="M183.203 1.99902C188.163 1.98259 193.534 1.55146 198.446 2.05859C200.11 2.21486 201.727 2.69951 203.202 3.48438C212.389 8.27947 213.555 22.849 208.625 30.8545C206.732 33.9287 204.908 36.4119 201.286 37.5488C197.395 37.4928 179.548 37.2272 176.737 37.9492C176.142 38.591 175.965 38.8348 175.119 39.0693L175.816 39.0146C175.58 39.0313 175.348 39.05 175.119 39.0703C175.014 39.3016 174.96 39.4997 174.963 39.7549C174.587 40.0404 174.012 40.415 173.918 40.8838L172.82 41.5674C172.442 43.8955 172.573 47.3301 172.583 49.7822L172.645 62.8906C169.592 62.8575 163.346 62.7311 160.455 63.0186C162.463 63.2432 167.857 63.9254 171.278 63.9434L171.694 63.9424C168.311 63.9833 162.546 63.2535 160.455 63.0195L160.433 47.2803C160.426 42.3692 159.976 35.9813 162.838 31.8047C169.844 21.5808 185.625 27.4762 196.1 25.1807C196.88 24.4839 197.55 23.7104 198.012 22.7617C198.782 21.1796 198.804 19.4107 198.219 17.7637C197.671 16.2225 196.504 15.1717 194.98 14.6328C192.482 13.7502 189.363 14.0304 186.74 14.0615C182.211 14.1151 166.764 14.9915 163.539 13.4414C162.127 12.7625 161.097 11.5998 160.594 10.1123C159.972 8.27161 160.186 6.17666 161.058 4.45117C161.598 3.38153 162.422 2.77738 163.552 2.4209C164.524 2.11457 165.574 2.01391 166.589 1.96777C172.089 1.71876 177.688 2.01738 183.203 1.99902ZM234.825 1.25391C243.306 1.57054 253.017 0.73027 261.507 1.27148C262.748 1.34684 263.981 1.54149 265.184 1.85449C267.587 2.50325 268.484 3.76572 269.653 5.80469C269.735 7.20365 269.649 8.63501 269.591 10.0371C268.849 11.4432 267.457 12.6922 266.31 13.7812C260.944 13.9641 236.588 12.8081 233.617 15.3047C232.27 16.436 231.682 18.4007 231.559 20.0977C231.458 21.4639 231.786 22.7072 232.695 23.7539C234.192 25.4786 236.681 25.7747 238.892 25.9443L239.819 26.0127C242.521 26.3172 246.706 26.216 249.497 26.208L265.408 26.1592C265.299 26.1099 265.174 26.0628 265.036 26.0166C264.899 25.9705 264.747 25.9257 264.583 25.8828C264.255 25.7969 263.875 25.717 263.451 25.6436C263.028 25.5701 262.561 25.5025 262.057 25.4414C263.569 25.6248 264.752 25.8636 265.408 26.1592C272.225 27.9105 271.241 37.2423 265.798 37.5391L246.421 37.4844C243.164 37.4807 236.443 36.9235 233.924 38.6914C236.065 38.8932 249.171 39.0864 257.7 38.9922C249.172 39.0865 236.066 38.8942 233.924 38.6924C232.564 39.9673 231.846 41.7818 231.862 43.6074C231.896 47.0536 232.065 47.5877 234.659 49.2168L234.18 49.5439C235.834 51.1867 260.005 49.2637 264.393 50.54C272.365 52.8597 270.613 61.7583 263.412 63.0498C263.031 63.2552 262.231 63.4161 261.139 63.541C262.231 63.4162 263.031 63.2542 263.412 63.0488C262.325 62.6965 235.25 62.7932 232.584 62.9912C233.734 63.2617 236.567 63.8131 237.57 63.8203C239.246 63.8323 243.934 63.9376 248.883 63.9424L251.012 63.9385C245.335 63.9705 239.484 63.8349 237.569 63.8213C236.565 63.8139 233.733 63.2627 232.583 62.9922C230.804 62.8055 229.235 62.5632 227.688 61.584C216.961 54.7939 216.125 41.6971 222.42 31.6787C219.357 26.0603 217.896 20.3703 219.496 14.043C220.948 7.21117 227.514 0.981111 234.825 1.25391ZM401.376 63.9229C401.398 63.9238 401.42 63.9249 401.443 63.9258C401.42 63.9249 401.398 63.9238 401.376 63.9229ZM258.02 63.7754C257.131 63.8193 256.173 63.8538 255.173 63.8789L253.125 63.918C254.866 63.8935 256.539 63.8486 258.02 63.7754ZM173.075 63.8613C172.894 63.8839 172.696 63.9022 172.482 63.915C172.696 63.9022 172.894 63.8839 173.075 63.8613ZM446.497 63.8955V63.8965V63.8955ZM449.778 62.0557C449.759 62.5763 449.734 63.0601 449.697 63.4805L449.657 63.8789C449.715 63.3787 449.753 62.7497 449.778 62.0557ZM443.535 63.8262V63.8252V63.8262ZM173.841 63.6992C173.662 63.7644 173.429 63.8138 173.153 63.8516C173.429 63.8138 173.662 63.7634 173.841 63.6982V63.6992ZM378.106 63.666C377.204 63.7337 376.252 63.7932 375.268 63.8438C375.924 63.81 376.566 63.772 377.188 63.7305L378.106 63.666ZM112.004 63.8252C112.032 63.8261 112.059 63.8272 112.087 63.8281C112.059 63.8272 112.032 63.8261 112.004 63.8252ZM398.953 63.7793C398.993 63.7824 399.033 63.7851 399.072 63.7881C399.033 63.7851 398.993 63.7824 398.953 63.7793ZM439.05 63.4336V63.4346V63.4336ZM109.507 63.7236C109.547 63.7256 109.587 63.7275 109.627 63.7295C109.587 63.7275 109.547 63.7256 109.507 63.7236ZM382.772 63.1729C381.933 63.2996 380.941 63.4167 379.838 63.5205H379.837C380.113 63.4946 380.382 63.467 380.643 63.4395C381.427 63.3569 382.142 63.2679 382.772 63.1729ZM448.266 0.579102L448.295 41.1758C448.295 48.1776 448.474 55.9748 448.288 62.916C446.095 62.754 436.676 62.7899 434.742 63.0254C435.18 63.1463 436.092 63.1196 436.815 63.1465C436.092 63.1196 435.179 63.1464 434.741 63.0254L434.882 59.4258C435.38 58.8348 435.081 50.8841 435.06 49.5918C435.019 47.2251 436.391 40.8219 435.448 39.0967C433.767 38.4898 413.409 38.4161 410.641 38.8359C410.64 38.8358 410.638 38.8361 410.637 38.8359L410.683 40.2451L410.671 54.7734C410.671 57.1001 410.571 60.6664 410.747 62.9043C407.133 62.8709 400.32 62.6786 396.778 62.915C396.831 62.9989 396.988 63.2416 397.165 63.4258C397.061 63.3169 396.962 63.1882 396.889 63.083L396.778 62.9141C396.987 61.6812 396.923 56.9461 396.923 55.5244L396.913 40.7979L396.935 18.6182C396.937 14.9848 397.096 9.20484 396.735 5.75098C395.679 6.94659 395.66 10.8414 395.715 13.6963C395.724 14.172 395.736 14.6189 395.744 15.0195C395.753 15.4203 395.759 15.7753 395.758 16.0664L395.761 30.541L395.771 50.0645C395.772 51.5384 395.755 53.1478 395.749 54.7734C395.755 53.1473 395.771 51.5378 395.77 50.0635L395.761 30.54L395.758 16.0654C395.763 13.7366 395.327 7.34409 396.735 5.75L396.723 0.556641C401.289 0.623049 406.065 0.557596 410.645 0.555664C410.794 8.55125 410.669 16.9472 410.702 24.9756L434.884 24.9658C435.048 18.6426 435.263 6.63705 434.821 0.550781L448.266 0.579102ZM103.867 63.0811C103.959 63.114 104.067 63.1469 104.19 63.1777C104.067 63.1469 103.959 63.114 103.867 63.0811ZM131.055 2.5918C136.075 2.67029 141.231 2.33498 146.235 2.62988C149.416 2.81776 151.18 5.70197 151.29 8.63281C151.413 11.9013 149.423 14.1329 146.236 14.5908C142.736 15.0934 139.182 14.722 135.659 14.8184C128.6 14.8771 121.497 14.6713 114.437 14.8701C112.803 15.8518 112.317 16.5725 111.311 18.1123C111.156 21.6179 110.569 24.8189 114.304 26.1826L114.679 26.3086C115.294 27.088 114.601 27.5144 115.51 27.5625C118.275 27.7084 121.226 27.6515 123.987 27.6416L140.469 27.584C144.927 28.3159 149.32 33.0518 150.059 37.5166L150.119 37.9473C150.092 41.4456 150.02 45.3156 150.07 48.8916L150.099 50.4043C150.228 55.7451 143.864 62.1583 138.676 63.0479H138.674C137.874 62.8712 128.946 62.8544 127.558 62.8877C119.852 63.0727 111.237 62.5918 103.635 62.9775H103.634C100.296 62.8611 97.9215 61.2354 97.6633 57.6299C96.9924 48.2512 106.899 50.3181 113.235 50.1416C120.309 49.9445 127.853 50.3786 135.126 50.0576C136.583 48.648 137.42 47.8936 138.029 45.8584C138.72 43.552 138.18 40.9952 135.737 40.1504L135.494 40.0742L135.132 39.8789L135.186 39.2422C134.264 38.7477 122.093 38.7916 114.736 38.8457L109.576 38.8828C107.218 38.2338 106.158 37.5497 104.346 36.0273C100.789 33.0386 98.2751 27.531 97.9865 22.9443C97.651 17.6072 98.8403 11.0447 102.585 6.99023C105.169 4.19271 107.969 2.59119 111.869 2.54883C118.272 2.47951 124.639 2.59059 131.055 2.5918ZM289.079 1.27637C298.136 1.18749 307.227 1.17116 316.281 1.30762C325.317 1.49172 331.146 9.0937 331.845 17.5898C332.399 23.1841 330.112 26.0386 329.215 31.1895C328.907 32.9629 330.941 36.7851 331.438 38.6035C333.248 46.1202 331.97 52.8381 326.874 58.5166C324.856 60.7373 322.229 62.3088 319.321 63.0332H319.319C318.163 62.7939 307.796 62.8694 306.028 62.8682L293.797 62.8701C291.869 62.8737 288.629 62.797 286.866 63.0186H286.863C286.562 62.9746 286.265 62.9074 285.969 62.8359C284.359 62.4451 282.799 61.4511 281.934 60.002C281.018 58.4692 281.136 56.6174 281.565 54.9453C282.066 52.9813 283.298 51.591 285.181 50.8418C291.049 48.5089 312.046 51.8525 316.357 49.2793C317.465 48.6165 318.213 47.5815 318.514 46.3252C318.904 44.6969 318.738 41.2027 317.834 39.7471C317.391 39.0382 316.436 38.7432 315.66 38.5664C316.064 38.2402 316.103 38.3243 316.17 37.9268C315.497 37.4805 314.184 37.4276 313.376 37.4629C304.114 37.8669 294.424 37.0915 285.2 37.584C279.121 37.2787 279.142 27.7871 285.058 26.1133C286.089 25.8204 287.459 25.5934 289.042 25.4258C287.459 25.5934 286.089 25.8204 285.058 26.1133C290.448 26.1732 295.839 26.2056 301.232 26.209C304.032 26.2142 308.056 26.3064 310.91 26.0566L311.465 26.002C313.712 25.7725 316.335 25.7124 317.885 23.8037C318.852 22.6154 319.355 21.0584 319.184 19.5342C319.015 18.0153 318.302 16.3384 317.082 15.3682C313.813 12.7657 290.053 13.9175 284.549 13.8096C278.194 8.19138 280.569 1.35969 289.079 1.27637ZM346.912 6.76562C352.447 1.03681 361.124 1.95074 368.505 1.97852L381.639 1.98145C388.242 2.03078 389.579 4.64808 389.492 10.8096C388.468 12.2035 387.482 13.2343 386.094 14.2539C378.1 15.3591 368.5 13.5366 360.455 14.9111C356.131 15.6501 352.06 20.6231 351.83 24.9053L351.445 25.3438C351.129 24.983 351.102 24.6517 351.003 24.1768C350.049 26.7181 350.61 35.4506 350.88 38.3936C351.124 37.038 351.314 35.6738 351.454 34.3037C351.515 35.1961 351.614 37.2828 351.811 38.1963L351.852 38.3633C351.963 42.2229 354.545 46.4485 357.787 48.6133C358.947 49.3859 359.253 49.9499 360.673 50.0811C361.637 50.4604 361.442 50.7848 362.095 51.3408C362.649 51.8098 381.052 51.4936 385.296 51.3516L385.946 51.3262C387.624 51.8143 388.587 52.9135 389.452 54.417C389.599 59.4927 389.282 62.0948 383.974 62.9541L383.445 63.0322C382.647 62.7766 356.756 62.8108 355.537 63.0303H355.535C352.474 62.695 349.372 60.6463 347.291 58.4482C339.796 50.5312 337.766 43.5225 337.92 32.8652C338.06 23.1657 339.938 13.982 346.912 6.76562ZM29.5187 0.856445C41.8801 -0.294637 43.3504 8.6188 46.8537 17.8438C51.8084 30.8903 56.2601 44.1066 61.1965 57.1572C61.8833 58.9728 62.5057 60.7547 63.2287 62.5635C59.0698 62.9941 53.2696 62.8108 48.9709 62.7656C48.9253 62.4788 48.8732 62.1933 48.8137 61.9092C48.6697 61.2308 47.8905 59.6478 47.5568 58.752L43.6447 48.3037C42.0828 44.0586 33.6699 18.7934 31.7043 17.5195C30.7534 17.5447 30.9348 17.8778 30.1437 18.2236L29.6945 19.4531C28.6133 22.803 26.8985 26.2139 25.9318 29.5283C23.2559 38.7009 19.4856 47.4427 16.5773 56.499C15.9072 58.5852 15.2704 60.665 14.5842 62.7451C12.2842 62.7625 1.78797 62.9838 0.171073 62.5508C-0.0481781 61.5914 0.830713 60.7452 1.04119 59.6309C1.21321 58.7201 1.09674 58.2058 1.41912 57.3477C1.68332 57.5697 1.69898 58.1364 1.77264 58.5479C2.74267 54.5543 3.64839 51.5405 5.40349 47.7871C5.7663 47.0118 6.08174 44.1365 6.38982 42.9844L6.80681 45.0439C7.30214 44.4372 7.0137 42.3789 7.45232 41.2471C7.36467 40.8709 8.46633 40.1423 8.47771 40.1426C10.7137 30.8639 15.5043 22.0635 17.6672 12.7764L17.8429 13.3584L18.09 13.4688C18.4791 12.9306 18.6115 10.9034 18.7658 10.0098L19.0803 9.96387L19.2316 10.9268L19.4318 10.9697C21.1735 4.46325 22.8933 2.6522 29.5187 0.856445ZM76.9474 0.916016C79.6261 0.901284 82.3052 0.908269 84.9836 0.936523L84.9855 62.752L79.4045 62.7881L71.8381 62.7441C71.7486 58.8876 71.9521 54.0379 71.9572 50.0439L71.9679 17.917C71.9672 12.7285 72.1649 6.01499 71.8332 0.96582L76.9474 0.916016ZM385.358 50.6816V50.6826V50.6816ZM369.63 50.0127C373.091 49.9939 376.911 50.0057 379.958 50.1201C376.911 50.0057 373.091 49.9939 369.63 50.0127ZM150.561 49.2158C150.496 49.2819 150.444 49.3533 150.399 49.4268C150.444 49.3532 150.496 49.2819 150.561 49.2158ZM150.646 39.3887L150.807 40.6865L150.805 40.6846L150.645 39.3848C150.645 39.386 150.645 39.3874 150.646 39.3887ZM110.072 39.9287C110.145 40.0358 110.247 40.1059 110.423 40.123L110.325 40.1064C110.207 40.0764 110.13 40.0144 110.072 39.9287ZM176.531 38.9697C180.394 38.7562 185.001 38.9502 189.513 38.9873C185.283 38.9526 180.969 38.7801 177.264 38.9346L176.531 38.9697ZM194.505 38.9326C194.235 38.9427 193.963 38.9517 193.69 38.959C193.963 38.9517 194.235 38.9427 194.505 38.9326ZM300.154 38.8223C299.675 38.8291 299.241 38.8442 298.863 38.8701C298.989 38.8615 299.121 38.854 299.259 38.8477L300.154 38.8223ZM264.77 38.7168C264.59 38.7459 264.344 38.7745 264.038 38.7988C264.344 38.7745 264.59 38.7459 264.77 38.7168ZM198.411 38.6572V38.6562V38.6572ZM265.264 38.5264C265.237 38.5488 265.209 38.5689 265.179 38.5879C265.209 38.5689 265.237 38.5488 265.264 38.5264ZM351.923 30.4727C351.916 28.5818 351.9 26.8143 351.871 25.7754C351.9 26.8141 351.916 28.5817 351.923 30.4727ZM136.17 26.2539H136.169H136.17ZM296.217 25.0547C294.609 25.0735 293.033 25.1268 291.562 25.2188C293.033 25.1269 294.609 25.0735 296.217 25.0547ZM256.731 25.0557H256.73H256.731Z" fill="white"/>
</g>
<defs>
<clipPath id="clip0_813_6181">
<rect width="450" height="64" fill="white"/>
</clipPath>
</defs>
</svg>
