<svg width="453" height="72" viewBox="0 0 453 72" fill="none" xmlns="http://www.w3.org/2000/svg">
<g clip-path="url(#clip0_813_6234)">
<path d="M183.146 42.9502C186.362 24.0132 207.346 16.2417 224.498 18.7461C232.052 19.8522 239.656 23.1237 244.255 29.415C248.88 35.8383 248.571 41.9869 247.909 49.3613C234.784 49.0828 221.565 49.4238 208.432 49.2686C206.781 49.2491 205.063 49.2316 203.415 49.2627C204.49 64.4542 230.763 61.1517 240.67 59.4248C242.38 59.1265 244.417 58.9086 246.078 58.4883C245.397 62.0143 244.813 65.5592 244.328 69.1182C239.924 70.3932 236.653 70.8447 232.109 71.3818C231.322 71.475 227.677 71.8504 227.08 72H213.973C205.411 70.7171 197.422 70.0395 190.332 64.3594C183.867 59.1798 181.914 50.8631 183.146 42.9502ZM390.894 36.2256C399.206 18.7493 424.174 14.2081 440.6 21.874C446.877 24.8089 450.702 29.2907 453 35.8594V49.3115L408.989 49.2529C411.303 64.3428 434.015 61.1376 444.871 59.6709C447.023 59.38 449.612 58.9798 451.702 58.5264C451.171 62.0052 450.655 65.7679 450.038 69.2109C445.311 70.288 440.869 71.1385 436.025 71.6025C435.205 71.6812 433.489 71.8154 432.768 72H420.067C418.97 71.7056 416.138 71.4167 414.889 71.2754C404.995 70.1554 393.574 66.054 389.942 55.834C387.837 49.909 388.166 41.9608 390.894 36.2256ZM148.757 18.0977C155.687 18.0254 162.58 18.3583 169.438 19.3955C171.956 19.7763 174.558 20.0014 177.015 20.7266C176.847 24.0407 176.243 28.0273 175.912 31.4268C168.035 29.5032 159.012 28.9602 150.907 28.9209C149.266 28.9129 141.78 28.9206 142.262 31.7227C142.731 34.4486 149.104 36.0256 151.342 37.0967C159.457 41.0041 177.236 45.5462 177.5 56.6611C177.569 59.5753 176.479 62.3985 174.469 64.5127C169.028 70.1565 157.533 71.0218 150.134 71.1592C148.817 71.2603 147.306 71.3158 145.987 71.2754C136.66 70.9898 127.171 70.7951 117.953 69.2988C118.437 65.7821 118.328 61.6694 118.852 57.8223C122.008 58.5875 125.436 58.895 128.66 59.3252C135.187 60.1985 141.732 60.7431 148.32 60.4668C150.203 60.3879 153.698 60.0491 153.53 57.4512C153.362 56.9974 153.055 56.4481 152.612 56.2188C145.965 52.7761 138.625 50.699 131.836 47.5459C126.155 44.9076 119.435 41.0243 119.095 34.0186C118.957 31.1848 119.717 27.8526 121.716 25.7041C127.428 19.9033 137.343 18.6448 145.019 18.207C145.446 18.1248 148.127 18.1042 148.757 18.0977ZM355.146 17.9932C364.464 17.8927 373.77 18.719 382.925 20.46L381.896 31.3818C374.65 29.9333 367.992 29.0172 360.531 28.8145C358.109 28.7486 350.722 28.6937 348.527 30.2314C348.162 30.4872 348.043 31.057 348.036 31.5117C348.032 32.569 349.582 33.546 350.411 33.9707C357.242 37.476 364.689 39.8187 371.542 43.3262C376.99 46.1158 383.427 49.8977 383.327 56.8408C383.128 70.5458 362.929 71.1072 353.077 71.1357C343.334 71.1633 333.598 70.5487 323.935 69.2949C324.123 65.3948 324.395 61.4986 324.751 57.6104C325.103 57.7024 325.459 57.7859 325.815 57.8604C331.308 59.0221 354.103 62.1571 358.379 59.3174C359.012 58.8975 359.146 58.4743 359.29 57.7793C359.027 56.6229 358.208 55.8964 357.146 55.3486C349.223 51.2553 327.936 46.3836 325.426 36.4678C321.278 20.0784 344.201 18.2394 355.146 17.9932ZM111.987 19.2314C111.397 23.8748 111.215 29.7431 110.814 34.5225C109.732 46.6635 108.779 58.816 107.957 70.9775C101.643 70.6085 92.4715 70.874 85.9844 70.915C86.5356 65.2427 86.8402 59.1086 87.2598 53.3809C88.0899 42.0544 89.1797 30.5695 89.9258 19.2588C97.2795 19.2917 104.634 19.2829 111.987 19.2314ZM282.481 18.6787C289.035 18.3176 294.498 18.4392 300.873 18.9434C320.035 20.4588 318.117 30.8084 317.272 45.6582C316.806 53.885 316.124 62.7582 315.713 70.9453C309.431 70.6503 301.488 70.8551 295.078 70.8633C295.558 65.814 295.671 60.5732 296.078 55.4434C296.571 48.8338 297.228 42.1638 297.222 35.5361C297.219 31.9324 295.058 30.0439 291.605 29.6836C288.509 29.2213 280.501 29.8464 277.343 30.3584C276.339 43.697 275.981 57.5133 274.735 70.7598C268.075 70.6213 261.005 70.7325 254.314 70.7334C254.651 68.1394 254.739 64.6297 254.907 61.9121L255.785 48.9043C256.338 39.6174 257.129 30.1018 257.54 20.8613C260.504 20.7761 264 20.1543 267.028 19.916C272.162 19.512 277.37 19.2305 282.481 18.6787ZM22.7002 0C23.984 0.317457 25.1156 0.725454 25.8408 1.91797C27.2425 4.22332 25.3442 21.182 24.7559 24.6934C35.4334 24.7667 46.1115 24.779 56.7891 24.7324C57.0976 19.8114 57.4538 14.8936 57.8574 9.97949C58.1224 6.89851 58.5756 3.05638 58.6475 0H81.1064L77.3818 47.1924C76.8724 55.1119 76.2824 63.026 75.6113 70.9336C68.6519 70.821 60.2459 70.7302 53.2891 70.9131C53.6728 64.8984 54.1175 58.8872 54.624 52.8818C54.951 49.2286 55.6132 43.1119 55.5605 39.543L23.9287 39.5469C23.0873 48.2232 22.5368 56.8911 21.8564 65.5791C21.7165 67.3667 21.4656 69.1524 21.3457 70.9414C14.3385 70.7884 7.03015 70.8787 0 70.8838V55.7578C0.391321 54.2096 0.60902 50.4031 0.723633 48.7061L1.48535 37.4492C2.41469 25.071 3.63843 12.3518 4.42773 0H22.7002ZM423.442 28.3594C416.072 28.917 411.77 32.1825 409.937 39.4326L422.808 39.4414C427.163 39.4361 431.646 39.4879 435.988 39.4199C435.783 31.5585 430.879 28.5387 423.442 28.3594ZM217.735 28.3604C210.45 28.8766 205.979 32.2704 204.205 39.4248L217.32 39.4414L230.315 39.4355C229.493 31.4699 225.807 28.5169 217.735 28.3604ZM109.651 0C113.027 0.648147 113.145 3.03658 112.956 5.98633C112.796 8.48272 112.538 10.9941 112.317 13.4873L90.3154 13.4961C90.741 9.16326 91.2397 4.34833 91.376 0H109.651Z" fill="white"/>
</g>
<defs>
<clipPath id="clip0_813_6234">
<rect width="453" height="72" fill="white"/>
</clipPath>
</defs>
</svg>
