<svg width="240" height="96" viewBox="0 0 240 96" fill="none" xmlns="http://www.w3.org/2000/svg">
<g clip-path="url(#clip0_813_6218)">
<path d="M41.998 -0.0522535C42.6304 -0.143989 43.3203 -0.170905 43.9316 0.0385668C47.7091 1.33305 46.1606 5.9421 48.75 8.31493C51.8647 11.1684 73.6687 28.2841 74.1006 29.2563C74.3627 29.8464 74.1362 30.6827 73.915 31.2476C73.7253 31.7323 73.4648 32.289 72.9492 32.5015C72.5188 32.6786 72.011 32.5582 71.5967 32.3931C70.0495 31.7767 68.2333 30.667 66.708 29.8823C63.2015 28.0799 59.6832 26.2986 56.1543 24.5395C54.1754 23.5353 51.9444 22.252 49.9082 21.4438C48.9321 21.7675 47.9569 22.2236 48.0303 23.4731C48.2104 27.2251 48.5207 31.0641 48.6982 34.811C48.9134 39.3524 51.3956 39.8657 55.0137 41.7632L61.8574 45.3315L77.8135 53.5698C79.7695 54.5653 84.2445 56.6999 85.7949 57.9897C85.5079 59.7998 84.7312 62.6776 83.9854 64.3462C82.5104 64.1101 80.2122 63.0443 78.6592 62.5317C72.9356 60.6429 67.3046 58.4195 61.5654 56.5561C63.9644 58.6705 78.1954 72.0298 79.1484 73.7417C78.3922 75.2578 72.9078 81.2749 71.4238 82.855C71.1622 83.1334 70.6187 83.4331 70.2559 83.6108C69.2481 82.739 67.0072 79.8852 66.0977 78.77L56.2129 66.5483C55.3328 65.4647 52.1646 61.005 50.9922 60.8267C50.3636 61.0098 49.7973 61.4502 49.8057 62.1597C49.8413 65.1915 50.0765 68.2314 50.2393 71.2602L50.8857 85.9517C50.9293 86.9985 51.517 95.2125 50.8779 95.8813C50.5452 96.2275 46.7318 96.1065 45.6758 96.0952C44.2875 96.0794 35.3084 96.2911 34.7861 95.8608C34.1559 94.1387 34.6873 90.5355 34.6504 88.812C34.5759 85.3287 36.5787 60.4353 35.7334 59.6304C34.8555 59.5069 31.8094 63.5314 31.0752 64.4018L20.6309 76.8101C19.3135 78.3863 17.9891 79.9595 16.6689 81.5337C15.8171 82.5495 14.7788 84.0482 13.499 84.4976C12.811 84.4301 12.2398 83.4478 11.9121 82.8618C10.2676 79.9211 8.44915 77.0306 6.93066 74.0288C6.37673 72.9339 6.78457 72.4326 7.55176 71.6499C9.49718 69.6653 11.6637 67.8955 13.7393 66.0483L24.459 56.5132C19.4877 58.3339 14.6051 60.3183 9.6377 62.1577C8.82595 62.4582 3.81868 64.5971 3.24414 64.2798C2.38279 63.8031 0.540922 60.4419 0.145508 59.3784C1.44596 58.1637 9.36135 53.8735 11.165 52.8667L29.2588 42.561C32.192 40.8551 36.9665 39.1211 37.1406 35.3511C37.3286 31.2728 37.6746 26.9204 37.6367 22.8511C37.0148 22.0473 36.4521 21.3842 35.3721 21.8618C33.7739 22.5684 32.1205 23.6741 30.6152 24.563C27.6913 26.2574 24.7767 27.9674 21.8721 29.6938C20.4326 30.5602 18.9953 31.4701 17.4336 32.1001C15.9017 32.7177 15.3654 29.2351 15.0566 28.1577C16.6508 26.4916 18.8558 24.6787 20.6064 23.0952L30.9688 13.7446C33.0161 11.9273 36.0619 9.55957 37.6357 7.4038C39.5298 4.80934 38.1967 1.40101 41.998 -0.0522535ZM109.219 29.9556C120.796 29.8906 132.847 29.798 144.402 29.9575C142.109 36.5584 139.756 43.1394 137.342 49.6977L129.862 70.4233C129.344 71.8354 126.929 79.1297 126.312 79.9643C121.232 79.917 116.152 79.9038 111.072 79.9243C111.847 76.6533 113.072 73.7538 114.137 70.5845C115.951 65.1835 117.95 59.8554 119.749 54.4517C121.085 50.4403 123.175 45.4666 124.217 41.4184C117.695 41.193 110.807 41.395 104.234 41.3384C105.083 38.9779 106.304 36.5769 107.251 34.2427C107.821 32.8369 108.518 31.298 109.219 29.9556ZM206.095 29.8911C210.407 30.1228 215.361 29.8411 219.818 29.979C219.107 34.9191 217.759 40.5681 216.783 45.5005C215.152 54.143 213.391 62.761 211.502 71.352C210.853 74.2154 210.815 77.1357 209.796 79.9643L196.194 79.8833C196.433 77.8405 197.068 75.0976 197.484 73.0366L200.314 59.2847L204.25 39.5054C204.834 36.5376 205.393 32.7171 206.095 29.8911ZM187.422 29.9429C187.452 31.8314 188.127 35.3689 188.429 37.3403L190.512 50.8403C190.936 53.4951 191.192 56.2682 191.579 58.9468L194.812 79.8794L181.338 79.9556C180.889 77.9054 180.742 75.6413 180.331 73.5601C180.028 72.0232 179.771 70.4154 179.542 68.8677C175.663 68.9282 171.615 68.8713 167.723 68.8716C164.751 68.88 161.613 68.928 158.655 68.8315C157.363 70.9234 155.854 73.8524 154.749 75.9829C152.436 80.4465 153.521 79.9224 148.562 79.9477C145.691 79.9625 142.12 79.7838 139.259 79.9399C140.149 77.7935 141.688 75.0682 142.821 72.9868L148.926 61.8325L159.056 43.2202C161.28 39.1047 163.953 33.8802 166.351 29.9351L187.422 29.9429ZM215.665 68.3921C217.347 68.533 220.743 68.4063 222.557 68.4272C228.27 68.4932 234.039 68.315 239.756 68.477C239.502 70.01 237.645 79.4363 237.1 79.9487C234.772 79.8307 231.551 79.9232 229.147 79.9184L213.385 79.9341L215.665 68.3921ZM174.759 38.8667C171.58 45.0013 167.71 51.4878 164.691 57.6421L167.774 57.6606L177.707 57.6069C177.5 55.4842 175.558 39.7145 174.759 38.8667ZM31.5879 26.4184C31.7321 26.4449 31.8692 26.4722 32.0098 26.5151C32.5986 26.6912 33.0861 27.1035 33.3545 27.6518C33.9349 28.8308 34.2061 32.8915 34.5381 34.3901C34.5817 35.3185 34.425 36.1329 33.6201 36.6206C30.9031 38.2667 27.7531 39.4719 24.8242 40.7485L13.0938 45.9517C10.5019 46.9881 10.72 45.5139 10.2803 43.2876C11.887 41.7103 15.6807 38.9025 17.6172 37.3354L25.8408 30.7446C27.2964 29.5723 29.9965 27.0968 31.5879 26.4184ZM53.7549 26.4018C55.9694 26.8963 64.5496 33.8652 67.041 35.353C67.9863 35.9178 76.297 41.9101 76.6875 42.4399C76.8179 43.0541 76.7259 43.5892 76.543 44.1753C76.0764 45.6694 75.9339 45.7598 74.542 45.2739C74.4297 45.2462 74.3178 45.217 74.2061 45.187C71.8853 44.5636 68.3024 42.9635 65.917 42.0737L58.5566 39.314C56.811 38.674 55.0299 38.0689 53.3232 37.3335C52.0001 36.6602 51.0724 36.3312 51.1855 34.6421C51.2798 33.4449 51.5365 32.2606 51.7256 31.0708C52.0482 29.0416 51.6426 27.4382 53.7549 26.4018ZM147.145 29.9419C152.482 29.9128 157.821 29.9121 163.16 29.9399C161.452 32.4607 159.201 37.1144 157.586 39.9634C157.363 40.3995 156.992 40.9469 156.724 41.3716C152.209 41.305 147.647 41.4454 143.142 41.3188C143.708 39.3951 144.716 37.0838 145.424 35.1831C146.103 33.3549 146.597 31.8184 147.145 29.9419Z" fill="white"/>
</g>
<defs>
<clipPath id="clip0_813_6218">
<rect width="240" height="96" fill="white"/>
</clipPath>
</defs>
</svg>
